<?xml version="1.0" standalone="no"?><!DOCTYPE svg PUBLIC "-//W3C//DTD SVG 1.1//EN" "http://www.w3.org/Graphics/SVG/1.1/DTD/svg11.dtd"><svg t="1750309071459" class="icon" viewBox="0 0 1024 1024" version="1.1" xmlns="http://www.w3.org/2000/svg" p-id="15527" xmlns:xlink="http://www.w3.org/1999/xlink" width="256" height="256"><path d="M511.592609 1.227327C375.972953 1.227327 245.876269 55.02517 149.940192 150.961247 54.004115 246.897323 0.001718 376.994007 0.001718 512.613664c0 135.619656 53.797843 265.71634 149.73392 361.652417s226.032761 149.733919 361.652417 149.733919c282.489812 0 511.386336-228.896524 511.386336-511.386336 0-135.619656-53.797843-265.71634-149.733919-361.652417C777.30895 55.02517 647.212266 1.227327 511.592609 1.227327z m0 0" fill="#FF509B" p-id="15528"></path><path d="M169.372873 336.287655c0 34.569716 0 68.730324 0.613663 103.095485 0.409109 18.000799 1.022773 35.797044 2.454655 53.797843 1.636436 21.273672 3.886536 43.161007 5.727527 64.843787 0 1.022773 0.613664 1.840991 0.613663 2.454655 7.363963-0.409109 14.523372-1.022773 21.682781-1.022773 30.68318-0.818218 60.548142 3.272873 89.185777 14.523372 13.909708 5.727527 27.614862 12.068718 39.68358 21.273672 10.023172 7.568518 12.273272 16.978026 6.954854 30.68318-2.863763 8.386736-8.386736 15.546145-15.546145 20.455453-16.978026 13.296045-34.365162 25.160208-54.820615 31.910508-14.318817 4.909309-29.046744 8.386736-43.979225 10.84139-19.432681 2.863763-39.274471 4.295645-59.11626 6.136636-4.091091 0.613664-7.977627 0-12.273272 0-1.840991 0-2.454654-1.022773-2.454655-2.863764-0.204555-8.795845-1.022773-18.000799-1.636436-27.001198-1.022773-11.659608-2.2501-23.114662-3.477427-34.774271l-5.727527-48.479425c-2.045545-17.182581-4.295645-33.956053-6.341191-50.934079-1.840991-16.773472-3.477427-33.342389-5.727527-49.911306-2.659209-18.819017-5.318418-37.638034-8.182181-56.661606-2.863763-22.296444-7.159409-44.592889-12.886936-66.275669-0.409109-1.022773 0.613664-2.863763 1.227328-3.477428 19.228126-7.363963 38.456252-14.932481 57.479824-22.705553 5.932082-3.068318 6.545745-3.886536 6.545745 4.091091z m412.381942 0c0 34.569716 0 68.730324 0.613663 103.095485 0.409109 18.000799 1.022773 35.797044 2.454655 53.797843 1.636436 21.273672 3.886536 43.161007 5.727527 64.843787 0 1.022773 0.613664 1.840991 0.613663 2.454655 7.363963-0.409109 14.523372-1.022773 21.682781-1.022773 30.478626-0.818218 60.548142 3.272873 89.185777 14.523372 14.114263 5.727527 27.614862 12.068718 39.68358 21.273672 10.023172 7.568518 12.273272 16.978026 6.750299 30.478625-2.863763 8.182181-8.182181 15.34159-15.546144 20.455454-16.978026 13.500599-34.569716 25.160208-54.820616 31.910507-14.318817 4.909309-29.046744 8.386736-43.979225 10.636836-19.432681 2.863763-39.274471 4.295645-59.11626 6.34119-4.091091 0.613664-7.977627 0-12.273272 0-1.840991 0-2.659209-1.022773-2.659209-2.863763-0.204555-8.795845-0.818218-18.000799-1.431882-27.001199-1.022773-11.659608-2.2501-23.319217-3.477427-34.77427l-5.727527-48.274871c-1.840991-17.182581-4.295645-34.160607-6.136636-51.138633-1.840991-16.773472-3.477427-33.342389-5.932081-49.706752-2.659209-18.819017-5.318418-37.638034-8.182182-56.866161-2.863763-22.296444-7.159409-44.592889-13.09149-66.275669-0.204555-1.022773 0.818218-2.863763 1.431882-3.272873 19.228126-7.363963 38.456252-14.932481 57.479824-22.910107 6.136636-2.863763 6.7503-3.681982 6.7503 4.295645z m-111.482222 184.099081c10.227727 0 20.455453 0.204555 30.68318 0.613664 2.454654 0 3.886536 1.840991 3.886537 4.295645 0.204555 5.318418 0.613664 10.227727 0.613663 15.34159 0 23.728326-0.409109 47.865761 0 71.594087 0.409109 19.228126 1.022773 38.047143 1.227327 57.27527 0 1.022773 0 2.454654 0.409109 4.500199-10.84139 0-21.887335 0.204555-32.115061 0-1.022773 0-2.659209-1.636436-2.659209-2.659209-1.431882-16.978026-2.863763-33.751498-4.5002-50.729524l-4.295645-47.047543c-1.227327-15.955254-2.863763-32.115062-4.295646-48.479425 0-1.022773 0-1.840991-0.409109-3.272872 3.886536-0.818218 7.773072-1.431882 11.455054-1.431882z m412.381942 0c10.227727 0 20.455453 0.204555 30.478626 0.613664 2.659209 0 3.886536 1.840991 3.886536 4.295645 0.204555 5.318418 0.613664 10.227727 0.613663 15.34159 0 23.728326-0.409109 47.865761 0 71.594087 0.409109 19.228126 1.022773 38.047143 1.227327 57.27527 0 1.022773 0 2.454654 0.40911 4.500199-10.84139 0-21.887335 0.204555-32.115062 0-1.022773 0-2.454654-1.636436-2.454655-2.659209-1.431882-16.978026-2.863763-33.751498-4.5002-50.729524l-4.295645-47.047543c-1.227327-15.955254-2.863763-32.115062-4.295645-48.479425 0-1.022773 0-1.840991-0.409109-3.272872 3.886536-0.818218 7.773072-1.431882 11.455054-1.431882z m-503.817819-1.431882c1.227327 7.773072 2.659209 15.546145 3.477427 23.728326 1.840991 13.296045 2.863763 26.592089 4.295646 39.888134 1.431882 11.659608 2.454654 23.114662 3.886536 34.774271 1.227327 12.273272 2.863763 24.751099 4.500199 37.43348 0.409109 3.477427 0.818218 7.363963 1.227328 11.2505-11.250499 1.431882-22.296444 2.659209-34.160608 4.295645-10.023172-50.320416-19.84179-100.436276-29.455853-150.756692 8.182181-1.022773 15.955254-2.454654 23.728326-3.272873 5.727527-0.818218 11.455054-0.818218 16.978027-1.431882 3.068318-0.204555 4.909309 1.227327 5.522972 4.091091z m412.381942 0c1.227327 7.773072 2.454654 15.546145 3.477427 23.728326 1.840991 13.296045 2.863763 26.592089 4.295645 39.888134l3.886536 34.774271 4.5002 37.43348c0.409109 3.477427 1.022773 7.363963 1.431882 11.2505-11.250499 1.431882-22.296444 2.659209-34.160607 4.295645-10.227727-50.320416-19.84179-100.027167-29.455853-150.756692 8.182181-1.022773 15.955254-2.454654 23.728326-3.272873 5.727527-0.818218 11.455054-0.818218 16.978026-1.431882 2.863763-0.204555 4.909309 1.227327 5.318418 4.091091z m-365.334399-140.938074l2.863764 43.979225c1.227327 19.84179 2.863763 39.68358 4.295645 59.525369 1.022773 14.318817 1.431882 28.637635 2.863763 42.956453 1.431882 15.750699 2.863763 31.296844 4.295646 46.842988 1.431882 11.250499 2.454654 23.114662 3.272872 34.365162 1.431882 12.273272 2.659209 24.751099 3.477427 37.638034l1.022773 10.636836c0 1.840991-0.818218 2.2501-2.863764 1.840991-10.023172-1.022773-19.84179-1.431882-30.478625-2.454655-9.204954-92.45865-16.978026-185.530963-34.365162-278.603276l17.182581-1.84099 20.250899-1.227328c5.727527-0.409109 7.773072 0.818218 8.182181 6.341191z m412.381942 0l2.863763 43.979225c1.227327 19.84179 2.863763 39.68358 4.295646 59.525369 1.022773 14.318817 1.636436 28.637635 2.863763 42.956453 1.431882 15.750699 2.863763 31.296844 4.295645 46.842988 1.227327 11.250499 2.2501 23.114662 3.272873 34.365162 1.227327 12.273272 2.659209 24.751099 3.477427 37.638034l1.022773 10.636836c0.204555 1.840991-0.818218 2.2501-2.863764 1.840991-10.227727-1.022773-19.84179-1.431882-30.478626-2.454655-9.204954-92.45865-16.978026-185.530963-34.365161-278.603276l17.182581-1.84099 20.250898-1.227328c5.727527-0.409109 7.773072 0.818218 8.182182 6.341191zM471.909029 445.110667c2.659209 0.204555 3.477427 0.613664 3.477428 3.681982-0.409109 7.773072 0 15.955254 0 23.728326v29.455853c-5.727527 0.613664-11.045945 1.022773-16.364363 1.227327-1.636436-18.819017-2.863763-37.842589-4.5002-58.093488h17.387135z m412.586497 0c2.659209 0.204555 3.477427 0.613664 3.477427 3.681982-0.409109 7.773072 0 15.955254 0 23.728326v29.455853c-5.727527 0.613664-11.045945 1.022773-16.364363 1.227327-1.636436-18.819017-2.863763-37.842589-4.5002-58.093488h17.387136z m-384.971634 0.409109c2.863763 0 4.295645 1.022773 4.295645 4.5002v53.184179l-21.069117-1.022773v-56.661606h16.773472z m412.381941 0c2.863763 0 4.295645 1.022773 4.295646 4.5002v53.184179l-21.069118-1.022773v-56.661606h16.773472z m-572.752696-3.272872c2.659209-0.409109 1.840991 1.840991 2.454654 3.477427l1.840991 19.228126c1.022773 10.227727 2.454654 19.84179 3.272872 30.069517v3.886536l-15.750699 2.659209c-3.477427-18.819017-6.7503-37.638034-10.227727-56.866161 6.136636-0.613664 12.068718-2.045545 18.409909-2.454654z m412.381941 0c2.659209-0.409109 1.840991 1.840991 2.454655 3.477427l1.84099 19.228126c1.022773 10.227727 2.454654 19.84179 3.272873 30.069517v3.886536l-15.750699 2.659209c-3.477427-18.819017-6.7503-37.638034-10.227727-56.866161 6.136636-0.613664 12.068718-2.045545 18.409908-2.454654z m-384.767079-3.272873c1.840991 0 2.863763 1.227327 3.477427 3.477427 1.636436 18.000799 3.272873 35.387934 5.318418 53.797843-6.7503 0.818218-13.296045 1.022773-20.455454 1.636436l-7.363963-58.502597c6.341191-0.409109 12.682381-0.409109 19.023572-0.409109z m412.381941 0c1.840991 0 2.863763 1.227327 3.272873 3.477427 1.636436 18.000799 3.272873 35.387934 5.318418 53.797843-6.7503 0.818218-13.296045 1.022773-20.455454 1.636436l-7.363963-58.502597c6.545745-0.409109 13.09149-0.409109 19.228126-0.409109z m0 0" fill="#FFFFFF" p-id="15529"></path><path d="M208.442789 596.071914c2.863763 21.069117 5.932082 42.138234 8.795845 64.025569 18.000799-13.500599 34.978825-26.592089 52.365961-39.68358-2.454654-2.863763-49.911306-21.887335-61.161806-24.341989z m412.381942 0c2.863763 21.069117 5.727527 42.138234 8.795845 64.025569 18.000799-13.500599 34.978825-26.592089 52.36596-39.68358-2.454654-2.863763-49.911306-21.887335-61.161805-24.341989z m0 0" fill="#F66E98" p-id="15530"></path></svg>