<?xml version="1.0" standalone="no"?><!DOCTYPE svg PUBLIC "-//W3C//DTD SVG 1.1//EN" "http://www.w3.org/Graphics/SVG/1.1/DTD/svg11.dtd"><svg t="1750308843499" class="icon" viewBox="0 0 1024 1024" version="1.1" xmlns="http://www.w3.org/2000/svg" p-id="10908" xmlns:xlink="http://www.w3.org/1999/xlink" width="256" height="256"><path d="M510.872089 0A511.738502 511.738502 0 0 0 0.577827 470.685702l274.473789 113.378508a144.333001 144.333001 0 0 1 89.622469-24.904607l122.134923-176.606643v-2.615552a193.084623 193.084623 0 1 1 193.050507 193.095994h-4.480555l-173.991091 124.181877c0 2.274393 0.193323 4.548787 0.193324 6.82318a144.799252 144.799252 0 0 1-286.766885 28.543636L18.22712 651.158813A511.965941 511.965941 0 1 0 510.792486 0h0.068231zM321.403752 776.591606L258.53952 750.549802a108.772862 108.772862 0 1 0 59.600478-148.745324l64.968045 26.837841a80.092761 80.092761 0 1 1-61.647431 147.835567v0.11372zM808.54469 379.823688a128.662431 128.662431 0 1 0-128.662432 128.616943A128.844383 128.844383 0 0 0 808.54469 379.823688z m-225.062593-0.227439a96.661717 96.661717 0 1 1 96.661717 96.661717 96.434278 96.434278 0 0 1-96.661717-96.661717z" fill="#004986" p-id="10909"></path></svg>