<?xml version="1.0" ?><svg fill="none" height="120" viewBox="0 0 120 120" width="120" xmlns="http://www.w3.org/2000/svg"><path d="M60 0C26.8629 0 0 26.8629 0 60C0 93.1371 26.8629 120 60 120C93.1371 120 120 93.1371 120 60C120 26.8629 93.1371 0 60 0Z" fill="url(#paint0_linear_17_83)"/><path d="M92.2802 43.9526C90.0529 43.9526 87.8475 43.5139 85.7897 42.6616C83.732 41.8093 81.8623 40.56 80.2873 38.9851C78.7124 37.4102 77.4631 35.5405 76.6107 33.4828C75.7584 31.425 75.3197 29.2195 75.3197 26.9923H63.2025V74.441C63.2002 76.6043 62.5171 78.712 61.25 80.4654C59.9829 82.2187 58.1961 83.5288 56.1428 84.21C54.0896 84.8911 51.874 84.9088 49.8102 84.2604C47.7463 83.612 45.9389 82.3306 44.6441 80.5976C43.3492 78.8646 42.6326 76.7681 42.5959 74.6051C42.5591 72.4421 43.204 70.3224 44.4393 68.5465C45.6745 66.7705 47.4373 65.4284 49.478 64.7103C51.5186 63.9921 53.7335 63.9345 55.8087 64.5455V52.7667C51.3985 52.172 46.9118 52.937 42.9477 54.9594C38.9837 56.9817 35.731 60.1653 33.6239 64.085C31.5168 68.0047 30.6557 72.4739 31.1556 76.8959C31.6554 81.3179 33.4924 85.4821 36.4212 88.8326C39.35 92.1831 43.2313 94.5603 47.5467 95.6469C51.8622 96.7334 56.4064 96.4775 60.5726 94.9134C64.7388 93.3493 68.3287 90.5514 70.8629 86.8934C73.3971 83.2353 74.755 78.8912 74.7553 74.441L75.1069 50.457C80.0855 54.1119 86.1027 56.0785 92.2788 56.0693L92.2802 43.9526Z" fill="url(#paint1_linear_17_83)"/><path d="M89.077 40.6519C84.5789 40.6517 80.2651 38.8648 77.0845 35.6841C73.9039 32.5034 72.1171 28.1894 72.1172 23.6913H60V71.1401C59.9977 73.3034 59.3147 75.4111 58.0476 77.1645C56.7806 78.9179 54.9938 80.228 52.9405 80.9092C50.8873 81.5904 48.6717 81.6081 46.6078 80.9597C44.544 80.3114 42.7365 79.0299 41.4416 77.297C40.1468 75.564 39.4302 73.4675 39.3934 71.3045C39.3566 69.1415 40.0015 67.0218 41.2367 65.2458C42.472 63.4698 44.2348 62.1277 46.2754 61.4095C48.3161 60.6914 50.531 60.6338 52.6062 61.2448V49.4658C48.196 48.8711 43.7093 49.636 39.7452 51.6584C35.7812 53.6808 32.5285 56.8644 30.4214 60.7841C28.3143 64.7038 27.4532 69.173 27.9531 73.595C28.4529 78.0169 30.2899 82.1812 33.2187 85.5317C36.1475 88.8821 40.0288 91.2594 44.3442 92.3459C48.6597 93.4324 53.2039 93.1766 57.3701 91.6125C61.5363 90.0484 65.1262 87.2505 67.6604 83.5924C70.1946 79.9344 71.5525 75.5902 71.5528 71.1401L71.9063 47.1562C76.8849 50.8111 82.9021 52.7776 89.0782 52.7684L89.077 40.6519Z" fill="url(#paint2_linear_17_83)"/><path d="M89.077 43.6493C84.8846 42.8426 81.1505 40.4844 78.6204 37.0455C75.4225 34.5428 73.229 30.9755 72.4388 26.9923H63.2025V74.441C63.2023 76.6929 62.4659 78.8829 61.1045 80.6767C59.7431 82.4705 57.8321 83.7696 55.6633 84.3756C53.4945 84.9816 51.1869 84.8613 49.0928 84.033C46.9988 83.2047 45.2333 81.7139 44.0658 79.7883C41.9897 78.437 40.4691 76.3837 39.7819 74.0038C39.0948 71.6239 39.2869 69.0761 40.3231 66.8261C41.3594 64.5761 43.1706 62.7741 45.4258 61.7493C47.6811 60.7246 50.2298 60.5455 52.6062 61.2448L52.6062 52.5769C48.5301 52.6294 44.5498 53.8202 41.1146 56.0149C37.6794 58.2096 34.9261 61.3209 33.1654 64.9975C31.4047 68.6741 30.7068 72.7696 31.1504 76.8219C31.594 80.8741 33.1615 84.7216 35.6759 87.9302C38.868 90.5938 42.7533 92.2922 46.8762 92.8263C50.9992 93.3604 55.189 92.7082 58.9545 90.946C62.72 89.1837 65.9051 86.3846 68.1364 82.8767C70.3678 79.3688 71.5529 75.2975 71.5528 71.1401L71.9063 47.1562C76.8849 50.8111 82.9021 52.7776 89.0782 52.7684L89.077 43.6493Z" fill="url(#paint3_linear_17_83)"/><defs><linearGradient gradientUnits="userSpaceOnUse" id="paint0_linear_17_83" x1="-0.315704" x2="119.695" y1="120.316" y2="0.304922"><stop stop-color="#111111"/><stop offset="1" stop-color="#323232"/></linearGradient><linearGradient gradientUnits="userSpaceOnUse" id="paint1_linear_17_83" x1="9.51229" x2="96.1079" y1="106.225" y2="8.24531"><stop stop-color="#B5053C"/><stop offset="0.233" stop-color="#C90441"/><stop offset="0.737" stop-color="#F0014B"/><stop offset="1" stop-color="#FF004F"/></linearGradient><linearGradient gradientUnits="userSpaceOnUse" id="paint2_linear_17_83" x1="8.04132" x2="99.259" y1="107.524" y2="4.31615"><stop stop-color="#00B2C9"/><stop offset="0.283" stop-color="#00C8D4"/><stop offset="0.741" stop-color="#00E6E4"/><stop offset="1" stop-color="#00F1EA"/></linearGradient><linearGradient gradientUnits="userSpaceOnUse" id="paint3_linear_17_83" x1="-59.6216" x2="152.254" y1="166.882" y2="-74.0346"><stop stop-color="#DDE3E4"/><stop offset="1" stop-color="#FCF7F7"/></linearGradient></defs></svg>