<?xml version="1.0" standalone="no"?><!DOCTYPE svg PUBLIC "-//W3C//DTD SVG 1.1//EN" "http://www.w3.org/Graphics/SVG/1.1/DTD/svg11.dtd"><svg t="1772287583171" class="icon" viewBox="0 0 1024 1024" version="1.1" xmlns="http://www.w3.org/2000/svg" p-id="6985" xmlns:xlink="http://www.w3.org/1999/xlink" width="128" height="128"><path d="M1023.992 512c0 282.782-229.188 512-511.984 512-282.782 0-512-229.218-512-512 0-282.75 229.218-512 512-512 282.796 0 511.984 229.25 511.984 512z" fill="#5D9CEC" p-id="6986"></path><path d="M791.304 768h164.188c8-13.812 15.376-28.062 22.062-42.656h-170.062c20.624-60.532 32.688-125 34.812-192h181.25c0.312-7.062 0.438-14.188 0.438-21.344 0-7.124-0.124-14.25-0.438-21.312h-181.25c-2.124-67-14.188-131.468-34.812-192h170.062A505.426 505.426 0 0 0 955.492 256h-164.188C751.18 160.406 689.226 76.25 611.696 9.718 579.446 3.344 546.132 0 512.008 0s-67.438 3.344-99.688 9.718C334.79 76.25 272.852 160.406 232.696 256H68.508c-8 13.844-15.376 28.062-22.062 42.688h170.062c-20.624 60.532-32.688 125-34.812 192H0.446A534.856 534.856 0 0 0 0.008 512c0 7.156 0.156 14.282 0.438 21.344h181.25c2.124 67 14.188 131.468 34.812 192H46.446A504.516 504.516 0 0 0 68.508 768h164.188c40.156 95.594 102.094 179.75 179.624 246.312 32.25 6.344 65.562 9.688 99.688 9.688s67.438-3.344 99.688-9.688c77.53-66.562 139.484-150.718 179.608-246.312z m-300.64 253.094a623.094 623.094 0 0 1-85.344-71.376c-52.968-52.968-95.312-114.032-126.062-181.718h211.406v253.094z m0-295.75H261.726c-22.594-61.532-35.124-125.906-37.344-192h266.282v192z m0-234.656H224.382c2.218-66.094 14.75-130.468 37.344-192h228.938v192z m0-234.688H279.258c30.75-67.656 73.094-128.75 126.062-181.688a621.092 621.092 0 0 1 85.344-71.376V256zM533.352 2.938c30.344 21.032 58.876 44.876 85.344 71.376 52.968 52.938 95.312 114.032 126.062 181.688H533.352V2.938z m0 295.75h228.954c22.562 61.532 35.124 125.906 37.312 192H533.352v-192z m0 234.656h266.266c-2.188 66.094-14.75 130.468-37.312 192H533.352v-192z m0 234.656h211.406c-30.75 67.688-73.094 128.75-126.062 181.718a623.382 623.382 0 0 1-85.344 71.376V768z" fill="#4A89DC" p-id="6987"></path></svg>