<?xml version="1.0" ?><!DOCTYPE svg  PUBLIC '-//W3C//DTD SVG 1.1//EN'  'http://www.w3.org/Graphics/SVG/1.1/DTD/svg11.dtd'><svg enable-background="new 0 0 300 300" height="300px" id="Layer_1" version="1.1" viewBox="0 0 300 300" width="300px" xml:space="preserve" xmlns="http://www.w3.org/2000/svg" xmlns:xlink="http://www.w3.org/1999/xlink"><g><path d="M150.52,14.524c-74.787,0-135.41,60.627-135.41,135.414c0,74.779,60.623,135.406,135.41,135.406   c74.782,0,135.409-60.627,135.409-135.406C285.929,75.151,225.302,14.524,150.52,14.524z M150.52,266.199   c-64.211,0-116.264-52.059-116.264-116.262c0-64.211,52.052-116.261,116.264-116.261c64.207,0,116.261,52.05,116.261,116.261   C266.78,214.141,214.727,266.199,150.52,266.199z" fill="#A3D179"/><path d="M255.264,149.934c0,57.852-46.897,104.744-104.744,104.744c-57.852,0-104.747-46.893-104.747-104.744   c0-57.851,46.895-104.744,104.747-104.744C208.366,45.189,255.264,92.083,255.264,149.934z" fill="#A3D179"/><polygon fill="#FFFFFF" points="137.202,211.401 81.978,125.994 81.978,124.92 133.718,148.3 219.059,88.466  "/></g></svg>