<?xml version="1.0" ?><!DOCTYPE svg  PUBLIC '-//W3C//DTD SVG 1.1//EN'  'http://www.w3.org/Graphics/SVG/1.1/DTD/svg11.dtd'><svg enable-background="new 0 0 300 300" height="300px" id="Layer_1" version="1.1" viewBox="0 0 300 300" width="300px" xml:space="preserve" xmlns="http://www.w3.org/2000/svg" xmlns:xlink="http://www.w3.org/1999/xlink"><g><path d="M151.123,14.8c-74.557,0-134.998,60.44-134.998,135.002c0,74.554,60.44,134.998,134.998,134.998   c74.559,0,135.002-60.443,135.002-134.998C286.125,75.241,225.682,14.8,151.123,14.8z M151.123,265.714   c-64.013,0-115.911-51.901-115.911-115.912c0-64.018,51.898-115.911,115.911-115.911c64.019,0,115.912,51.894,115.912,115.911   C267.035,213.813,215.142,265.714,151.123,265.714z" fill="#D77E47"/><circle cx="151.125" cy="149.802" fill="#D77E47" r="104.431"/><g><path d="M139.156,93.922c3.02-2.791,6.638-4.183,10.829-4.183c4.195,0,7.785,1.392,10.793,4.183    c2.996,2.804,4.496,6.161,4.496,10.091c0,3.931-1.517,7.279-4.54,10.051c-3.021,2.768-6.602,4.151-10.749,4.151    c-4.183,0-7.801-1.379-10.829-4.151c-3.024-2.771-4.536-6.12-4.536-10.051C134.62,100.083,136.132,96.726,139.156,93.922z" fill="#FFFFFF"/><path d="M176.604,209.861h-49.046v-5.663c1.347-0.1,2.663-0.236,3.962-0.389c1.287-0.16,2.402-0.413,3.329-0.778    c1.665-0.613,2.824-1.516,3.505-2.679c0.666-1.163,1.011-2.699,1.011-4.616v-45.172c0-1.809-0.417-3.393-1.239-4.765    c-0.83-1.38-1.869-2.483-3.108-3.305c-0.926-0.618-2.346-1.215-4.227-1.789c-1.885-0.565-3.609-0.922-5.158-1.083v-5.659    l38.029-2.018l1.163,1.159v61.62c0,1.813,0.393,3.345,1.158,4.616c0.782,1.268,1.89,2.206,3.341,2.835    c1.035,0.466,2.183,0.887,3.413,1.239c1.248,0.365,2.535,0.618,3.883,0.778v5.667H176.604L176.604,209.861z" fill="#FFFFFF"/></g></g></svg>