<?xml version="1.0" standalone="no"?><!DOCTYPE svg PUBLIC "-//W3C//DTD SVG 1.1//EN" "http://www.w3.org/Graphics/SVG/1.1/DTD/svg11.dtd"><svg t="1748857394898" class="icon" viewBox="0 0 1365 1024" version="1.1" xmlns="http://www.w3.org/2000/svg" p-id="26863" xmlns:xlink="http://www.w3.org/1999/xlink" width="266.6015625" height="200"><path d="M21.333333 512a661.333333 490.666667 0 1 0 1322.666667 0 661.333333 490.666667 0 1 0-1322.666667 0Z" fill="#FF001A" p-id="26864"></path><path d="M558.933333 725.333333h-93.866666l-59.733334-102.4c-12.8-21.333333-21.333333-34.133333-29.866666-38.4s-17.066667-8.533333-25.6-8.533333h-25.6V725.333333h-85.333334V337.066667h136.533334c93.866667 0 136.533333 34.133333 136.533333 106.666666 0 25.6-8.533333 46.933333-21.333333 68.266667s-38.4 34.133333-64 38.4c17.066667 4.266667 38.4 25.6 59.733333 59.733333l72.533333 115.2zM324.266667 401.066667V512h38.4c21.333333 0 34.133333-4.266667 46.933333-17.066667s17.066667-25.6 17.066667-42.666666c0-34.133333-21.333333-51.2-64-51.2h-38.4zM819.2 725.333333h-230.4V337.066667H810.666667v68.266666h-136.533334v89.6h128v68.266667h-128v93.866667h145.066667V725.333333zM1152 712.533333c-29.866667 12.8-64 21.333333-110.933333 21.333334-59.733333 0-106.666667-17.066667-140.8-51.2S853.333333 597.333333 853.333333 541.866667c0-59.733333 17.066667-110.933333 55.466667-149.333334s89.6-59.733333 149.333333-59.733333c38.4 0 68.266667 4.266667 93.866667 12.8V426.666667c-25.6-17.066667-55.466667-21.333333-89.6-21.333334-38.4 0-68.266667 12.8-89.6 34.133334s-34.133333 55.466667-34.133333 93.866666c0 38.4 12.8 68.266667 34.133333 93.866667s51.2 34.133333 85.333333 34.133333 64-8.533333 93.866667-25.6v76.8z" fill="#FFFFFF" p-id="26865"></path></svg>