<?xml version="1.0" standalone="no"?><!DOCTYPE svg PUBLIC "-//W3C//DTD SVG 1.1//EN" "http://www.w3.org/Graphics/SVG/1.1/DTD/svg11.dtd"><svg t="1748914838603" class="icon" viewBox="0 0 1024 1024" version="1.1" xmlns="http://www.w3.org/2000/svg" p-id="28469" xmlns:xlink="http://www.w3.org/1999/xlink" width="200" height="200"><path d="M14.222222 14.222222m113.777778 0l768 0q113.777778 0 113.777778 113.777778l0 768q0 113.777778-113.777778 113.777778l-768 0q-113.777778 0-113.777778-113.777778l0-768q0-113.777778 113.777778-113.777778Z" fill="#F5232D" p-id="28470"></path><path d="M512 199.111111c172.8 0 312.888889 140.088889 312.888889 312.888889-0.199111 172.714667-140.174222 312.689778-312.888889 312.888889-172.8 0-312.888889-140.088889-312.888889-312.888889S339.2 199.111111 512 199.111111z m0 54.755556A258.133333 258.133333 0 1 0 770.133333 512c0-142.336-120.149333-258.133333-258.133333-258.133333z m0 124.017777a134.087111 134.087111 0 1 1 0 268.231112 134.087111 134.087111 0 0 1 0-268.231112z" fill="#FFFFFF" p-id="28471"></path></svg>