<?xml version="1.0" standalone="no"?><!DOCTYPE svg PUBLIC "-//W3C//DTD SVG 1.1//EN" "http://www.w3.org/Graphics/SVG/1.1/DTD/svg11.dtd"><svg t="1748489006810" class="icon" viewBox="0 0 1024 1024" version="1.1" xmlns="http://www.w3.org/2000/svg" p-id="32410" xmlns:xlink="http://www.w3.org/1999/xlink" width="200" height="200"><path d="M96 128h832a32 32 0 0 1 32 32v704a32 32 0 0 1-32 32H96a32 32 0 0 1-32-32V160a32 32 0 0 1 32-32z m32 64v640h768V192H128z m64 448V384l111.836-0.12c19.76 0 34.86 2.096 45.304 6.288 10.44 4.188 18.864 11.96 25.264 23.312 6.4 11.348 9.596 25.172 9.596 41.472 0 14.2-2.448 26.456-7.34 36.76-4.892 10.3-11.62 18.656-20.18 25.056-5.46 4.076-12.94 7.452-22.44 10.128 7.62 3.144 13.984 11.12 21.608 23C362.452 561.408 371.904 591.444 384 640H320l-27.308-77.428c-4.328-10.128-11.776-17.508-15.16-20.536-4.612-3.96-9.836-5.936-15.668-5.936h-5.648V640H192z m64.216-152.272l32.236-0.12c2.916 0 8.56-1.164 16.936-3.492 4.232-1.048 7.692-3.728 10.372-8.036 2.68-4.304 4.024-9.252 4.024-14.84 0-8.268-2.12-14.612-6.352-19.036-4.236-4.424-12.184-6.636-23.852-6.636l-33.36 0.12v52.04zM448 384h172.868v54.68h-108.22v40.712h100.388v52.236h-100.388v50.488H624v58.004h-176V384z m363.552 154.288l53.84 21.832c-3.616 20.256-9.312 37.176-17.088 50.76-7.776 13.588-17.428 23.836-28.956 30.748-11.528 6.916-26.2 10.372-44.008 10.372-21.608 0-39.26-4.216-52.96-12.644-13.696-8.432-25.52-23.26-35.464-44.484-9.944-21.228-14.916-48.396-14.916-81.508 0-44.152 8.748-78.08 26.24-101.796C715.736 387.856 740.488 376 772.492 376c25.044 0 44.732 6.792 59.064 20.376 14.328 13.584 24.976 34.448 31.936 62.588l-54.248 16.192c-1.896-8.128-3.888-14.068-5.968-17.828-3.432-6.308-7.64-11.16-12.612-14.56-4.972-3.392-10.532-5.092-16.68-5.092-13.92 0-24.592 7.52-32.004 22.56-5.608 11.16-8.408 28.688-8.408 52.58 0 29.6 3.344 49.88 10.036 60.86 6.688 10.976 16.092 16.464 28.208 16.464 11.752 0 20.636-4.428 26.648-13.28 6.012-8.856 10.376-21.712 13.088-38.572zM704 256h128v64h-128V256z" fill="#d81e06" p-id="32411"></path></svg>