<?xml version="1.0" standalone="no"?><!DOCTYPE svg PUBLIC "-//W3C//DTD SVG 1.1//EN" "http://www.w3.org/Graphics/SVG/1.1/DTD/svg11.dtd"><svg t="1743240571284" class="icon" viewBox="0 0 1024 1024" version="1.1" xmlns="http://www.w3.org/2000/svg" p-id="14603" xmlns:xlink="http://www.w3.org/1999/xlink" width="200" height="200"><path d="M855.04 222.72h-341.333333a4.053333 4.053333 0 0 0-4.053334 4.053333v87.466667h47.146667a34.133333 34.133333 0 0 1 34.133333 34.133333v103.253334h264.106667a4.053333 4.053333 0 0 0 4.053333-4.266667V226.773333a3.84 3.84 0 0 0-4.053333-4.053333z" fill="#93D015" p-id="14604"></path><path d="M164.906667 398.293333m4.266666 0l341.12 0q4.266667 0 4.266667 4.266667l0 241.28q0 4.266667-4.266667 4.266667l-341.12 0q-4.266667 0-4.266666-4.266667l0-241.28q0-4.266667 4.266666-4.266667Z" fill="#85D60C" p-id="14605"></path><path d="M906.666667 530.133333a29.44 29.44 0 0 0 29.226666-29.44V173.44a29.44 29.44 0 0 0-29.226666-29.44H462.72a29.226667 29.226667 0 0 0-29.226667 29.44v140.8H117.973333a29.866667 29.866667 0 0 0-29.866666 29.866667v358.186666a30.08 30.08 0 0 0 29.866666 30.08h443.733334a30.08 30.08 0 0 0 29.866666-30.08v-31.146666h141.653334v132.053333h-141.653334v-31.146667a29.44 29.44 0 0 0-29.44-29.44H117.546667a29.44 29.44 0 0 0-29.44 29.44v78.506667a29.44 29.44 0 0 0 29.44 29.44h444.586666a29.44 29.44 0 0 0 29.44-29.44v-13.226667h156.586667a19.2 19.2 0 0 0 19.2-19.2v-146.986666h139.733333a29.013333 29.013333 0 0 0 28.8-29.013334v-70.826666a29.013333 29.013333 0 0 0-28.8-29.013334H591.573333v-12.16z m-349.226667 315.733334H122.24v-69.12h435.2z m0-147.626667H122.24v-349.866667h435.2z m-89.813333-384V178.133333h434.133333v317.866667H591.573333v-151.893333a29.866667 29.866667 0 0 0-29.866666-29.866667zM901.76 576v60.586667H591.573333V576z" fill="#666666" p-id="14606"></path></svg>