<?xml version="1.0" standalone="no"?><!DOCTYPE svg PUBLIC "-//W3C//DTD SVG 1.1//EN" "http://www.w3.org/Graphics/SVG/1.1/DTD/svg11.dtd"><svg t="1741827174476" class="icon" viewBox="0 0 1024 1024" version="1.1" xmlns="http://www.w3.org/2000/svg" p-id="18189" xmlns:xlink="http://www.w3.org/1999/xlink" width="200" height="200"><path d="M640 53.333333c41.216 0 74.666667 33.450667 74.666667 74.666667v53.333333H938.666667a32 32 0 0 1 31.701333 27.648L970.666667 213.333333a32 32 0 0 1-32 32h-96V896A74.666667 74.666667 0 0 1 768 970.666667H256A74.666667 74.666667 0 0 1 181.333333 896V245.333333H85.333333a32 32 0 0 1-31.701333-27.648L53.333333 213.333333A32 32 0 0 1 85.333333 181.333333h224V128c0-41.216 33.450667-74.666667 74.666667-74.666667h256z m138.666667 192H245.333333V896c0 5.888 4.778667 10.666667 10.666667 10.666667h512a10.666667 10.666667 0 0 0 10.666667-10.666667V245.333333zM341.333333 352a32 32 0 0 1 32 32v341.333333a32 32 0 1 1-64 0V384A32 32 0 0 1 341.333333 352z m170.666667 0a32 32 0 0 1 32 32v341.333333a32 32 0 1 1-64 0V384a32 32 0 0 1 32-32z m170.666667 0a32 32 0 0 1 32 32v341.333333a32 32 0 1 1-64 0V384a32 32 0 0 1 32-32z m-42.666667-234.666667H384a10.666667 10.666667 0 0 0-10.666667 10.666667v53.333333h277.333334V128a10.666667 10.666667 0 0 0-10.666667-10.666667z" fill="#222222" p-id="18190"></path></svg>