<?xml version="1.0" encoding="UTF-8"?>
<svg width="16px" height="16px" viewBox="0 0 16 16" version="1.1" xmlns="http://www.w3.org/2000/svg" xmlns:xlink="http://www.w3.org/1999/xlink">
    <title>删除-经过 点击</title>
    <defs>
        <polygon id="path-1" points="0 0 16 0 16 16 0 16"></polygon>
        <polygon id="path-3" points="0 0 14 0 14 14.0012668 0 14.0012668"></polygon>
    </defs>
    <g id="页面-1" stroke="none" stroke-width="1" fill="none" fill-rule="evenodd">
        <g id="文件传输2" transform="translate(-845.000000, -736.000000)">
            <g id="编组-11" transform="translate(79.000000, 135.000000)">
                <g id="编组-4" transform="translate(12.000000, 480.000000)">
                    <g id="编组-3" transform="translate(6.000000, 6.000000)">
                        <g id="1备份-11" transform="translate(0.000000, 104.000000)">
                            <g id="删除-经过-点击" transform="translate(748.000000, 11.000000)">
                                <mask id="mask-2" fill="white">
                                    <use xlink:href="#path-1"></use>
                                </mask>
                                <g id="Clip-2"></g>
                                <g id="error" mask="url(#mask-2)">
                                    <g transform="translate(1.000000, 1.000000)">
                                        <mask id="mask-4" fill="white">
                                            <use xlink:href="#path-3"></use>
                                        </mask>
                                        <g id="Clip-2" stroke="none" fill="none"></g>
                                        <path d="M6.99940884,0 C10.865803,0 14,3.13419695 14,7.00067561 C14,10.8670698 10.865803,14.0012668 6.99940884,14.0012668 C3.13293018,14.0012668 -0.00126677726,10.8670698 -0.00126677726,7.00067561 C-0.00126677726,3.13419695 3.13293018,0 6.99940884,0 Z M6.99940884,1.23544563 C3.81532197,1.23544563 1.23417886,3.81658875 1.23417886,7.00067561 C1.23417886,10.1846991 3.81532197,12.7659267 6.99940884,12.7659267 C10.1834324,12.7659267 12.7646388,10.1846991 12.7646388,7.00067561 C12.7646388,3.81658875 10.1834324,1.23544563 6.99940884,1.23544563 Z M9.18320615,3.94301312 L10.0569869,4.81689941 L7.87238727,7.00067561 L10.0565857,9.18447293 L9.18278389,10.0582537 L6.99940884,7.87365405 L4.81561152,10.0578525 L3.94174634,9.18405067 L6.12634595,7.00067561 L3.94214749,4.81730056 L4.81603378,3.94341427 L6.99940884,6.12678932 L9.18278389,3.94301312 L9.18320615,3.94301312 Z" id="Fill-1" stroke="none" fill="#FFFFFF" fill-rule="evenodd" mask="url(#mask-4)"></path>
                                    </g>
                                </g>
                            </g>
                        </g>
                    </g>
                </g>
            </g>
        </g>
    </g>
</svg>