<?xml version="1.0" standalone="no"?><!DOCTYPE svg PUBLIC "-//W3C//DTD SVG 1.1//EN" "http://www.w3.org/Graphics/SVG/1.1/DTD/svg11.dtd"><svg t="1741772067831" class="icon" viewBox="0 0 1024 1024" version="1.1" xmlns="http://www.w3.org/2000/svg" p-id="11088" xmlns:xlink="http://www.w3.org/1999/xlink" width="200" height="200"><path d="M550.4 825.6h422.4V198.4H51.2v620.8h499.2z" fill="#0078BF" p-id="11089"></path><path d="M550.4 793.6H928V230.4H102.4v563.2h448z" fill="#12A6FF" p-id="11090"></path><path d="M550.4 793.6H928v-12.8H102.4v12.8h448z" fill="#0A0A0A" p-id="11091"></path><path d="M761.6 806.4c-12.8 0-19.2-12.8-19.2-19.2 0-12.8 12.8-19.2 19.2-19.2 12.8 0 19.2 12.8 19.2 19.2 0 12.8-6.4 19.2-19.2 19.2z m-576 0c-12.8 0-19.2-12.8-19.2-19.2 0-12.8 12.8-19.2 19.2-19.2 12.8 0 19.2 12.8 19.2 19.2 0 12.8-6.4 19.2-19.2 19.2z m646.4 0c-12.8 0-19.2-12.8-19.2-19.2 0-12.8 12.8-19.2 19.2-19.2 12.8 0 19.2 12.8 19.2 19.2 6.4 12.8-6.4 19.2-19.2 19.2z" fill="#FFFFFF" p-id="11092"></path></svg>