<?xml version="1.0" encoding="utf-8"?>
<!-- Uploaded to: SVG Repo, www.svgrepo.com, Generator: SVG Repo Mixer Tools -->
<svg width="800px" height="800px" viewBox="0 0 1024 1024" class="icon"  version="1.1" xmlns="http://www.w3.org/2000/svg"><path d="M915.750748 183.778201L832.043003 100.591614a25.112835 25.112835 0 0 0-17.613899-7.241941h-681.201146c-13.832691 0-25.05345 11.223831-25.05345 25.05345v784.418001c0 13.829619 11.220759 25.05345 25.05345 25.05345h764.905819c13.832691 0 25.05345-11.223831 25.05345-25.05345V201.523157a24.931608 24.931608 0 0 0-7.436479-17.744956z" fill="#27323A" /><path d="M371.493241 143.456573H733.135681v241.920553c0 3.851857-3.19657 6.918393-7.241941 6.918393H378.736206c-3.978818 0-7.241941-3.133089-7.241941-6.918393V143.456573z" fill="#FFFFFF" /><path d="M873.080327 877.767674H158.280385V143.456573h179.808597v241.920553c0 22.24698 18.269186 40.322652 40.6462 40.322652h347.157534c22.378038 0 40.6462-18.074648 40.6462-40.322652V143.456573h37.51311c11.027245 10.963764 57.869999 57.478874 69.027277 68.506119l0.001024 665.804982z" fill="#79CCBF" /><path d="M270.105044 472.344921c-32.749996 0-59.369991 23.813525-59.36999 53.173437v256.732078c0 29.358888 26.619995 53.236917 59.36999 53.236917h490.824004c32.883101 0 59.69661-23.877006 59.69661-53.236917V525.518358c0-29.358888-26.813509-53.173437-59.69661-53.173437H270.105044z" fill="#27323A" /><path d="M244.139312 782.250436V525.518358c0-10.699602 11.875022-19.769178 25.964708-19.769178h490.824004c7.439551 0 14.550434 2.415345 19.571568 6.720783 2.481898 2.087702 6.720783 6.654231 6.720783 13.047371v256.732078c0 10.766154-12.06956 19.832659-26.292351 19.832659H270.105044c-14.089686 0.001024-25.965732-9.064457-25.965732-19.831635z" fill="#F4CE73" /><path d="M572.701041 173.730814c-9.196538 0-16.701617 7.435455-16.701617 16.702641V348.646264c0 9.19961 7.506103 16.702641 16.701617 16.702641H678.265666c9.263091 0 16.702641-7.503032 16.702642-16.702641V190.432432c0-9.266162-7.439551-16.702641-16.702642-16.702642H572.701041z" fill="#27323A" /><path d="M661.564049 207.135073v124.808549h-72.160366V207.135073h72.160366z" fill="#FFFFFF" /><path d="M649.167869 723.923785H382.129362c-12.39618 0-22.44459-10.048411-22.444591-22.378038 0-12.39618 10.048411-22.381109 22.444591-22.381109H649.166845c12.39618 0 22.44459 9.98493 22.444591 22.381109 0 12.329627-10.047387 22.378038-22.443567 22.378038zM649.167869 626.709968H382.129362c-12.39618 0-22.44459-10.044315-22.444591-22.378037 0-12.459661 10.048411-22.44459 22.444591-22.44459H649.166845c12.39618 0 22.44459 9.98493 22.444591 22.44459 0 12.333723-10.047387 22.378038-22.443567 22.378037z" fill="#27323A" /></svg>