<!DOCTYPE svg PUBLIC "-//W3C//DTD SVG 1.1//EN" "http://www.w3.org/Graphics/SVG/1.1/DTD/svg11.dtd">
<!-- Uploaded to: SVG Repo, www.svgrepo.com, Transformed by: SVG Repo Mixer Tools -->
<svg version="1.1" id="Layer_1" xmlns="http://www.w3.org/2000/svg" xmlns:xlink="http://www.w3.org/1999/xlink" viewBox="0 0 512 512" xml:space="preserve" width="800px" height="800px" fill="#4b4444" stroke="#4b4444">
<g id="SVGRepo_bgCarrier" stroke-width="0"/>
<g id="SVGRepo_tracerCarrier" stroke-linecap="round" stroke-linejoin="round"/>
<g id="SVGRepo_iconCarrier"> <g> <path style="fill:#ccf7ff;" d="M256,314.062c26.286,0,47.505,21.219,47.505,47.505c0,26.286-21.219,47.505-47.505,47.505 c-26.286,0-47.505-21.219-47.505-47.505C208.495,335.281,229.714,314.062,256,314.062z"/> <rect x="219.052" y="102.928" style="fill:#ccf7ff;" width="73.897" height="174.186"/> </g> <path style="fill:#FFD311;" d="M256,55.423c110.74,0,200.577,89.838,200.577,200.577S366.74,456.577,256,456.577 S55.423,366.74,55.423,256S145.26,55.423,256,55.423z M292.948,277.113V102.928h-73.897v174.186H292.948z M303.505,361.567 c0-26.286-21.219-47.505-47.505-47.505c-26.286,0-47.505,21.219-47.505,47.505c0,26.286,21.219,47.505,47.505,47.505 C282.286,409.072,303.505,387.853,303.505,361.567z"/> <path style="fill:#addeff;" d="M256,7.918c137.026,0,248.082,111.056,248.082,248.082S393.026,504.082,256,504.082 S7.918,393.026,7.918,256S118.974,7.918,256,7.918z M456.577,256c0-110.74-89.838-200.577-200.577-200.577S55.423,145.26,55.423,256 S145.26,456.577,256,456.577S456.577,366.74,456.577,256z"/> <path style="fill:#FABD1B;" d="M55.423,256c0,110.74,89.838,200.577,200.577,200.577v-47.505c-26.286,0-47.505-21.219-47.505-47.505 c0-26.286,21.219-47.505,47.505-47.505v-36.948h-36.948V102.928H256V55.423C145.26,55.423,55.423,145.26,55.423,256z"/> <path style="fill:#a9e2fe;" d="M55.423,256C55.423,145.26,145.26,55.423,256,55.423V7.918C118.974,7.918,7.918,118.974,7.918,256 S118.974,504.082,256,504.082v-47.505C145.26,456.577,55.423,366.74,55.423,256z"/> <path d="M256,512c-68.386,0-132.676-26.627-181.024-74.976S0,324.386,0,256S26.627,123.324,74.976,74.976S187.614,0,256,0 s132.676,26.627,181.025,74.976C485.373,123.324,512,187.614,512,256s-26.627,132.676-74.975,181.024 C388.676,485.373,324.386,512,256,512z M256,15.835c-64.157,0-124.47,24.98-169.828,70.337S15.835,191.843,15.835,256 s24.98,124.47,70.337,169.828S191.843,496.165,256,496.165c64.156,0,124.469-24.98,169.828-70.337 C471.186,380.47,496.165,320.157,496.165,256s-24.979-124.47-70.337-169.828C380.469,40.815,320.156,15.835,256,15.835z"/> <path d="M256,464.495c-114.965,0-208.495-93.53-208.495-208.495S141.035,47.505,256,47.505S464.495,141.035,464.495,256 S370.965,464.495,256,464.495z M256,63.34C149.767,63.34,63.34,149.767,63.34,256S149.767,448.66,256,448.66 S448.66,362.233,448.66,256S362.233,63.34,256,63.34z"/> <path d="M300.866,285.031h-89.732V95.01h89.732V285.031z M226.969,269.196h58.062V110.845h-58.062V269.196z"/> <path d="M256,416.99c-30.561,0-55.423-24.862-55.423-55.423s24.862-55.423,55.423-55.423c30.56,0,55.423,24.862,55.423,55.423 S286.56,416.99,256,416.99z M256,321.979c-21.829,0-39.588,17.758-39.588,39.588s17.758,39.588,39.588,39.588 s39.588-17.758,39.588-39.588S277.829,321.979,256,321.979z"/> <g> <path style="fill:#FFFFFF;" d="M355.772,389.006l-9.523-12.651c38.248-28.791,60.184-72.659,60.184-120.355 c0-44.6-19.631-86.637-53.859-115.335l10.173-12.134c37.826,31.713,59.521,78.174,59.521,127.469 c0,26.595-6.099,52.01-18.128,75.535C392.686,353.936,375.961,373.81,355.772,389.006z"/> <path style="fill:#FFFFFF;" d="M156.228,389.006c-20.189-15.197-36.914-35.07-48.368-57.471 C95.832,308.01,89.732,282.595,89.732,256c0-49.295,21.694-95.756,59.521-127.469l10.173,12.134 C125.198,169.362,105.567,211.4,105.567,256c0,47.696,21.937,91.564,60.185,120.355L156.228,389.006z"/> </g> </g>
</svg>