<?xml version="1.0" encoding="UTF-8"?>
<svg width="16px" height="16px" viewBox="0 0 16 16" version="1.1" xmlns="http://www.w3.org/2000/svg" xmlns:xlink="http://www.w3.org/1999/xlink">
    <title>首页[不可选取]</title>
    <defs>
        <polygon id="path-1" points="0 0 16 0 16 16 0 16"></polygon>
    </defs>
    <g id="前端界面" stroke="none" stroke-width="1" fill="none" fill-rule="evenodd">
        <g id="文件传输" transform="translate(-445, -414)">
            <g id="编组-20" transform="translate(293, 275)">
                <g id="编组-19备份-3" transform="translate(73, 132)">
                    <g id="矩形-3备份-2" transform="translate(72, 0)">
                        <g id="首页[不可选取]" transform="translate(7, 7)">
                            <mask id="mask-2" fill="white">
                                <use xlink:href="#path-1"></use>
                            </mask>
                            <g id="Clip-2"></g>
                            <path d="M8.72328535,0.71375278 L14.8695286,4.62835211 C15.2620291,4.87833929 15.4998318,5.31140688 15.5,5.77675025 L15.5,14.1378386 C15.4997356,14.4993611 15.3559005,14.8459594 15.1000974,15.1014981 C14.8442703,15.3569407 14.4975038,15.5002952 14.1359813,15.5001031 L8.6984116,15.5001031 L8.69886822,11.3066052 L7.31793057,11.3066052 L7.31793057,15.4996222 L1.86404273,15.5001031 C1.50252022,15.5002952 1.15572969,15.3569407 0.89992662,15.1014981 C0.644099514,14.8459594 0.500288391,14.4993611 0.5,14.1378386 L0.5,5.65911064 C0.5,5.18756685 0.743714672,4.74974081 1.14503518,4.50133978 L7.27157167,0.704452161 C7.71711218,0.428557827 8.28130167,0.432114653 8.72328535,0.71375278 Z M14.093732,14.0938108 L14.093732,5.79318856 L7.9901947,1.90627479 L1.90629206,5.6760296 L1.90629206,14.0938108 L5.96890821,14.0938108 L5.96890821,9.93035386 L10.0484433,9.93035386 L10.0484433,14.0933542 L14.093732,14.0938108 Z" id="home" fill="#CCCCCC" mask="url(#mask-2)"></path>
                        </g>
                    </g>
                </g>
            </g>
        </g>
    </g>
</svg>