<?xml version="1.0" standalone="no"?><!DOCTYPE svg PUBLIC "-//W3C//DTD SVG 1.1//EN" "http://www.w3.org/Graphics/SVG/1.1/DTD/svg11.dtd"><svg t="1741825571235" class="icon" viewBox="0 0 1024 1024" version="1.1" xmlns="http://www.w3.org/2000/svg" p-id="17150" xmlns:xlink="http://www.w3.org/1999/xlink" width="200" height="200"><path d="M512.270789 0.049992C229.566802 0.049992 0.354109 229.262685 0.354109 511.966672c0 174.10083 86.952514 327.884133 219.772563 420.369081 0.566574-1.970513 1.199805-3.903531 1.799707-5.849048 0.370773-1.203971 0.724882-2.416273 1.112319-3.607746 1.337282-4.136827 2.741221-8.231993 4.249309-12.264671 0.091652-0.245793 0.191635-0.479089 0.287453-0.724882 1.416436-3.766054 2.920358-7.482116 4.482603-11.160683 0.516583-1.208137 1.058161-2.399609 1.587242-3.603581a274.817771 274.817771 0 0 1 9.735916-19.896761c0.616566-1.137315 1.216469-2.291294 1.841366-3.420277a274.538649 274.538649 0 0 1 6.253149-10.689927c0.304117-0.495753 0.637396-0.970675 0.94568-1.466428 1.883027-3.007844 3.820212-5.974028 5.811554-8.894385 0.870692-1.283124 1.774711-2.528755 2.666233-3.795216a270.043548 270.043548 0 0 1 7.682083-10.36498 267.331489 267.331489 0 0 1 4.640911-5.765728c1.083157-1.312286 2.14965-2.637071 3.257803-3.928527 1.941351-2.270464 3.941025-4.490936 5.957364-6.694744 1.62057-1.774711 3.274467-3.52026 4.945028-5.249145 1.737217-1.808039 3.4786-3.607746 5.274142-5.365794 1.45393-1.4331 2.94952-2.82454 4.436778-4.224312a274.41367 274.41367 0 0 1 9.306818-8.365305l0.045826-0.04166v0.004166c24.583499-21.075736 53.108023-38.035476 84.80703-50.225159 1.4331-0.554076 2.870366-1.108153 4.32013-1.641399a321.039414 321.039414 0 0 1 7.45712-2.632905c1.549748-0.524915 3.111993-1.024833 4.674239-1.528918 2.503759-0.804036 5.003352-1.612238 7.544606-2.35795 1.541416-0.454093 3.111993-0.86236 4.670073-1.299788a324.555509 324.555509 0 0 1 13.360325-3.411945c2.033002-0.474923 4.061839-0.966509 6.111506-1.408104 2.220472-0.474923 4.46594-0.899854 6.707241-1.32895a351.86773 351.86773 0 0 1 6.815558-1.258129 326.746819 326.746819 0 0 1 14.360162-2.145484c1.837201-0.241627 3.670236-0.491587 5.519935-0.699886a357.629292 357.629292 0 0 1 13.739431-1.316452h51.720748c4.753393 0.354109 9.452628 0.8207 14.122702 1.353946 1.324784 0.149976 2.637071 0.329113 3.957689 0.495753a375.980472 375.980472 0 0 1 10.110854 1.408104 354.90057 354.90057 0 0 1 14.410155 2.557917c1.170643 0.233295 2.349618 0.445761 3.516094 0.69572a327.613344 327.613344 0 0 1 26.424866 6.703076c1.074825 0.320781 2.132986 0.666558 3.199479 0.999837a314.265517 314.265517 0 0 1 13.318666 4.453442c3.116159 1.124817 6.194825 2.29546 9.256826 3.511928 29.845142 11.843906 56.790757 27.991277 80.236941 47.817217v-0.099983c0.783206 0.658226 1.528918 1.353946 2.303792 2.02467a268.802083 268.802083 0 0 1 9.50262 8.61943c1.028999 0.979007 2.070496 1.945517 3.082831 2.937022a269.622783 269.622783 0 0 1 7.569602 7.711245c0.433263 0.454093 0.874858 0.90402 1.303954 1.362279a274.159544 274.159544 0 0 1 7.815395 8.78607c0.970675 1.133149 1.912189 2.303792 2.8662 3.45777 1.670561 2.02467 3.328625 4.070171 4.945028 6.144833a260.928365 260.928365 0 0 1 7.523776 10.165012c0.949845 1.337282 1.908023 2.674565 2.832872 4.032677a274.746949 274.746949 0 0 1 5.032514 7.702913 276.859105 276.859105 0 0 1 7.690415 12.877071c0.891522 1.595574 1.741383 3.220309 2.603743 4.836713 1.083157 2.033002 2.157982 4.078503 3.199479 6.144833a270.322669 270.322669 0 0 1 5.353296 11.310659c0.849862 1.895525 1.703889 3.786884 2.516257 5.707405 0.833198 1.978845 1.616404 3.986851 2.403775 5.990691 1.487258 3.761888 2.899528 7.565435 4.245143 11.418975 0.583238 1.678893 1.191473 3.345289 1.745549 5.03668 0.795704 2.424605 1.528918 4.886705 2.266298 7.348804 0.304117 1.016501 0.641562 2.012172 0.937347 3.037006l-0.037494 0.024996v0.004166c132.770057-92.493279 219.680911-246.243255 219.680911-420.310757C1024.187469 229.258519 794.974776 0.049992 512.270789 0.049992z m221.972205 578.576664c-36.648202 86.373442-122.234272 146.96358-221.972205 146.96358-99.558796 0-185.003222-60.373507-221.759739-146.501155-13.02288 64.481172-91.301806 120.484557-138.648267 101.39183 32.248918-31.790659 5.12-190.514825 119.493051-189.223368-8.073686-158.565858 139.027372-254.662718 240.914955-247.705517 102.129211-6.957201 249.576046 89.139658 241.389878 247.705517 113.881465-1.137315 86.89419 157.803483 119.018129 189.577477-47.383954 19.263531-125.812856-37.352254-138.435802-102.208364z" fill="#A0D9F6" p-id="17151"></path><path d="M753.660667 491.253377c8.186168-158.565858-139.264833-254.662718-241.389878-247.705517v114.193914c24.387697 103.187372 170.243124 177.91271 240.831636 134.453116-0.954011 30.578356-7.536273 59.740277-18.855265 86.431766 12.622945 64.856111 91.047681 121.471896 138.435802 102.204198-32.123938-31.773995-5.14083-190.718959-119.022295-189.577477z" fill="#FCBA6F" p-id="17152"></path><path d="M512.270789 357.741774c-24.316876 103.412335-170.547242 178.266819-240.835801 134.186493 0.929015 30.857478 7.598763 60.273523 19.076062 87.160814 36.756517 86.127648 122.200944 146.501155 221.759739 146.501155 99.737933 0 185.324003-60.590138 221.972205-146.96358 11.323157-26.687323 17.901253-55.849243 18.855265-86.431766-70.584345 43.455427-216.443938-31.265745-240.82747-134.453116z" fill="#FCE9EA" p-id="17153"></path><path d="M512.270789 357.741774V243.54786c-101.891749-6.957201-248.988641 89.139658-240.914955 247.705517-114.373051-1.291456-87.239967 157.436876-119.493051 189.223368 47.346461 19.092726 125.625386-36.910659 138.648267-101.39183-11.477299-26.88729-18.14288-56.303336-19.076062-87.160814 70.28856 44.080325 216.51476-30.769992 240.835801-134.182327z" fill="#FECF77" p-id="17154"></path><path d="M756.189422 836.642994zM748.38236 827.040391c0.970675 1.133149 1.912189 2.303792 2.8662 3.45777-0.954011-1.153979-1.895525-2.320456-2.8662-3.45777zM763.713198 846.808007c0.949845 1.337282 1.908023 2.674565 2.832872 4.032676-0.924849-1.362278-1.883027-2.695395-2.832872-4.032676zM728.606412 806.243775c1.028999 0.979007 2.070496 1.945517 3.082831 2.937022-1.012335-0.991505-2.053832-1.953849-3.082831-2.937022zM739.258845 816.892042c0.433263 0.454093 0.874858 0.90402 1.303954 1.362279-0.429097-0.458259-0.870692-0.908186-1.303954-1.362279zM795.349715 905.402636zM739.263011 970.879479a511.145972 511.145972 0 0 0 65.239381-38.606216v-0.004166a511.750041 511.750041 0 0 1-65.239381 38.610382zM716.8 795.703824c-23.446184-19.82594-50.391798-35.973312-80.236941-47.817217l0.412433 0.162474v134.007355h-251.292433v-133.124166c1.845533-0.749878 3.703564-1.478926 5.569927-2.199642-31.699007 12.189683-60.227697 29.149422-84.80703 50.225159v183.749259a511.750041 511.750041 0 0 1-20.959089-9.723417c68.359707 33.840325 145.343011 52.895557 226.788088 52.895557 81.461741 0 158.457543-19.063564 226.829748-52.920553a510.558568 510.558568 0 0 1-22.304703 10.310822V795.703824zM282.437364 820.199837zM785.072221 882.398047zM790.425517 893.70454c0.849862 1.895525 1.703889 3.786884 2.516257 5.707405-0.808202-1.916355-1.662229-3.81188-2.516257-5.707405zM779.273165 871.416501c0.891522 1.595574 1.741383 3.220309 2.603743 4.836713-0.86236-1.616404-1.712221-3.241139-2.603743-4.836713zM801.340407 921.858291c0.795704 2.428771 1.528918 4.886705 2.266298 7.348804-0.73738-2.462099-1.470594-4.924199-2.266298-7.348804zM771.578584 858.53943zM251.696534 952.640781zM251.479902 861.109845c0.304117-0.495753 0.637396-0.970675 0.94568-1.466428-0.308283 0.495753-0.641562 0.970675-0.94568 1.466428zM258.23297 850.753198c0.870692-1.278959 1.774711-2.528755 2.666233-3.795216-0.887356 1.262295-1.791375 2.512091-2.666233 3.795216zM452.905452 729.86454zM243.385386 875.224215c0.616566-1.137315 1.212303-2.291294 1.841367-3.420277-0.629064 1.128983-1.224801 2.278796-1.841367 3.420277zM237.373865 887.013963zM552.372596 727.056664c1.324784 0.149976 2.637071 0.333279 3.957689 0.495753-1.320618-0.162474-2.632905-0.341611-3.957689-0.495753zM439.382653 732.451619c2.220472-0.474923 4.46594-0.899854 6.707241-1.32895-2.241302 0.433263-4.48677 0.854028-6.707241 1.32895zM467.265614 727.723222c1.837201-0.241627 3.670236-0.491587 5.519935-0.699886-1.849699 0.204133-3.678568 0.458259-5.519935 0.699886zM285.436876 970.958633zM301.517592 801.282083zM292.656534 809.584898c1.45393-1.4331 2.94952-2.82454 4.436778-4.224312-1.487258 1.399772-2.982848 2.791212-4.436778 4.224312zM273.222197 830.827274c1.083157-1.312286 2.14965-2.637071 3.257803-3.928527-1.103987 1.291456-2.174646 2.612075-3.257803 3.928527zM265.456794 840.688169zM395.56895 745.095395zM407.700309 740.933572c2.503759-0.804036 5.003352-1.612238 7.544606-2.35795-2.541253 0.745712-5.040846 1.549748-7.544606 2.35795zM419.910822 737.275834zM227.288007 910.610122c0.091652-0.245793 0.195801-0.479089 0.287453-0.724882-0.095818 0.245793-0.195801 0.479089-0.287453 0.724882zM610.788088 738.9214c1.074825 0.320781 2.132986 0.666558 3.199479 0.999837-1.066493-0.333279-2.124654-0.679056-3.199479-0.999837zM580.851294 731.522604c1.170643 0.233295 2.349618 0.445761 3.516094 0.69572-1.166477-0.249959-2.345452-0.466591-3.516094-0.69572zM623.573507 743.058226c1.249797 0.433263 2.495427 0.874858 3.732726 1.316453l-3.732726-1.316453zM719.099626 797.628511zM221.926379 926.486705c0.370773-1.203971 0.724882-2.416273 1.112319-3.607746-0.387437 1.187307-0.741546 2.399609-1.112319 3.607746zM566.441139 728.960521zM232.058063 898.724557c0.516583-1.208137 1.058161-2.399609 1.587242-3.603581-0.529081 1.203971-1.070659 2.395443-1.587242 3.603581z" fill="#F4B3B3" p-id="17155"></path><path d="M385.678893 882.056436h251.292433v-134.007355l-0.412433-0.162474a307.162506 307.162506 0 0 0-12.989552-4.828381 310.536957 310.536957 0 0 0-9.58594-3.136989c-1.066493-0.333279-2.124654-0.679056-3.199479-0.999837a327.171749 327.171749 0 0 0-26.424866-6.703076c-1.162311-0.249959-2.345452-0.462425-3.516094-0.69572a328.379886 328.379886 0 0 0-14.410155-2.557917 373.65585 373.65585 0 0 0-10.110854-1.408104c-1.320618-0.162474-2.632905-0.345777-3.957689-0.495753a360.228869 360.228869 0 0 0-14.122702-1.353946h-51.720748c-4.624247 0.345777-9.198503 0.79987-13.739431 1.316452-1.849699 0.208299-3.682734 0.458259-5.519935 0.699886a326.746819 326.746819 0 0 0-14.360162 2.145484c-2.287128 0.395769-4.553426 0.816534-6.815558 1.258129-2.241302 0.433263-4.490936 0.854028-6.707241 1.32895-2.053832 0.437429-4.078503 0.933181-6.111506 1.408104a326.280228 326.280228 0 0 0-13.360325 3.411945c-1.55808 0.433263-3.124491 0.84153-4.670073 1.299788-2.537087 0.749878-5.040846 1.553914-7.544606 2.35795-1.562246 0.504085-3.124491 1.004003-4.674239 1.528918-2.503759 0.849862-4.990854 1.728885-7.45712 2.632905-1.449764 0.533247-2.882864 1.087323-4.32013 1.641399-1.870529 0.720716-3.72856 1.45393-5.569927 2.199642v133.12z m126.591896-118.680683a15.230854 15.230854 0 1 1 0.004166 30.465874 15.230854 15.230854 0 0 1-0.004166-30.465874z m0 55.266005a15.23502 15.23502 0 1 1 0 30.47004 15.23502 15.23502 0 0 1 0-30.47004zM306.44179 796.957787l-0.045826 0.037494c-1.645566 1.41227-3.270301 2.84537-4.878372 4.286802-1.49559 1.341448-2.962018 2.707893-4.428446 4.078503-1.487258 1.399772-2.982848 2.791212-4.436778 4.224312-1.791375 1.758047-3.532758 3.557754-5.274142 5.365794a280.766802 280.766802 0 0 0-10.902392 11.943889c-1.108153 1.295622-2.174646 2.616241-3.257803 3.928527a247.168104 247.168104 0 0 0-7.769569 9.860895c-1.549748 2.06633-3.062002 4.157657-4.553425 6.269813-0.891522 1.266461-1.795541 2.516257-2.666233 3.795216a278.662978 278.662978 0 0 0-5.811554 8.894385c-0.308283 0.491587-0.637396 0.966509-0.94568 1.466428a277.671473 277.671473 0 0 0-6.253149 10.689927c-0.629064 1.128983-1.224801 2.282962-1.841366 3.420277a270.547632 270.547632 0 0 0-9.735916 19.896761c-0.529081 1.203971-1.074825 2.395443-1.587242 3.603581a284.566184 284.566184 0 0 0-4.482603 11.160683c-0.091652 0.245793-0.195801 0.479089-0.287453 0.724882a289.327909 289.327909 0 0 0-4.249309 12.264671c-0.387437 1.191473-0.741546 2.403775-1.112319 3.607746-0.604068 1.949683-1.233133 3.882701-1.799707 5.849048l1.208137 0.837363c9.881725 6.828055 19.996745 13.331164 30.361725 19.467665l0.649894 0.383271a513.133149 513.133149 0 0 0 33.140439 17.963743 511.750041 511.750041 0 0 0 20.959089 9.723417v-183.745093zM804.539886 932.244101c-0.291619-1.024833-0.629064-2.020504-0.937347-3.037006-0.73738-2.462099-1.470594-4.920033-2.266298-7.348804-0.554076-1.691391-1.162311-3.357787-1.745549-5.03668a280.454353 280.454353 0 0 0-4.245143-11.418975c-0.787372-1.999675-1.570578-4.011847-2.403775-5.990691-0.812368-1.920521-1.666395-3.81188-2.516257-5.707405a270.322669 270.322669 0 0 0-5.353296-11.310659 317.323352 317.323352 0 0 0-3.199479-6.144833c-0.86236-1.616404-1.712221-3.241139-2.603743-4.836713a280.225224 280.225224 0 0 0-7.690415-12.877071 280.975102 280.975102 0 0 0-5.032514-7.702912c-0.924849-1.358112-1.883027-2.691229-2.832872-4.032677a260.928365 260.928365 0 0 0-7.523776-10.165013 279.612823 279.612823 0 0 0-4.945028-6.144833c-0.954011-1.153979-1.891359-2.324622-2.8662-3.45777a269.7186 269.7186 0 0 0-7.815395-8.78607l-1.303954-1.362279a281.095915 281.095915 0 0 0-7.569602-7.711245c-1.012335-0.991505-2.053832-1.958015-3.082831-2.937022a269.556127 269.556127 0 0 0-9.50262-8.61943c-0.774874-0.670724-1.520586-1.366444-2.303792-2.02467V981.256957a510.558568 510.558568 0 0 0 22.467177-10.394142 511.750041 511.750041 0 0 0 65.239381-38.610382c0.008332 0.008332 0.02083 0 0.033328-0.008332z" fill="#FEFEFE" p-id="17156"></path><path d="M512.270789 778.610773m-15.23502 0a15.23502 15.23502 0 1 0 30.470041 0 15.23502 15.23502 0 1 0-30.470041 0Z" fill="#F4B3B3" p-id="17157"></path><path d="M512.270789 833.876778m-15.23502 0a15.23502 15.23502 0 1 0 30.470041 0 15.23502 15.23502 0 1 0-30.470041 0Z" fill="#F4B3B3" p-id="17158"></path></svg>