<?xml version="1.0" encoding="UTF-8"?>
<svg width="16px" height="16px" viewBox="0 0 16 16" version="1.1" xmlns="http://www.w3.org/2000/svg" xmlns:xlink="http://www.w3.org/1999/xlink">
    <title>刷新[不可选取]</title>
    <defs>
        <polygon id="path-1" points="0 0 16 0 16 16 0 16"></polygon>
    </defs>
    <g id="前端界面" stroke="none" stroke-width="1" fill="none" fill-rule="evenodd">
        <g id="文件传输" transform="translate(-481, -414)">
            <g id="编组-20" transform="translate(293, 275)">
                <g id="编组-19备份-3" transform="translate(73, 132)">
                    <g id="矩形-3备份-3" transform="translate(108, 0)">
                        <g id="刷新[不可选取]" transform="translate(7, 7)">
                            <mask id="mask-2" fill="white">
                                <use xlink:href="#path-1"></use>
                            </mask>
                            <g id="Clip-2"></g>
                            <path d="M15.4418892,7.06248736 C15.4802933,7.36955196 15.5,7.68264874 15.5,8.00004735 C15.5,12.1423793 12.1423807,15.4999986 8.00004878,15.4999986 C6.00308349,15.4999986 4.18816518,14.7194917 2.84373318,13.4468931 L2.84373318,15.4999986 L1.43746529,15.4999986 L1.43792191,12.2187068 L1.43746529,10.812511 L6.12504896,10.812511 L6.12504896,12.2187068 L3.60311544,12.2187068 C4.71219613,13.3746992 6.27224866,14.0937067 8.00004878,14.0937067 C11.3656469,14.0937067 14.0937321,11.3656455 14.0937321,8.00004735 C14.0938282,7.68610943 14.0698918,7.37265216 14.0219948,7.06248736 L15.4423698,7.06248736 L15.4418892,7.06248736 Z M14.5625602,0.5 L14.5620795,3.78129175 L14.5625602,5.18746351 L9.8749765,5.18746351 L9.8749765,3.78129175 L12.3973666,3.78129175 C11.2493291,2.58163216 9.66036534,1.90410496 8.00004878,1.90626789 C4.63435452,1.90626789 1.90629335,4.6343531 1.90629335,8.00004735 C1.90629335,8.31874373 1.93059031,8.63229713 1.97800664,8.93751121 L0.557631613,8.93751121 C0.519059282,8.62648124 0.499809165,8.31340849 0.5,8.00004735 C0.5,3.8576193 3.85762073,0.5 8.00004878,0.5 C9.99691794,0.5 11.8123169,1.28096354 13.1562682,2.55356208 L13.1562682,0.5 L14.5625602,0.5 Z" id="Fill-1" fill="#CCCCCC" mask="url(#mask-2)"></path>
                        </g>
                    </g>
                </g>
            </g>
        </g>
    </g>
</svg>