<?xml version="1.0" standalone="no"?><!DOCTYPE svg PUBLIC "-//W3C//DTD SVG 1.1//EN" "http://www.w3.org/Graphics/SVG/1.1/DTD/svg11.dtd"><svg t="1741772116522" class="icon" viewBox="0 0 1024 1024" version="1.1" xmlns="http://www.w3.org/2000/svg" p-id="12091" xmlns:xlink="http://www.w3.org/1999/xlink" width="200" height="200"><path d="M163.84 619.52l-57.6 219.52a38.4 38.4 0 0 0 8.96 35.84 37.76 37.76 0 0 0 25.6 10.24h14.72L355.84 832h6.4l551.68-576a92.8 92.8 0 0 0 24.32-74.24 112.64 112.64 0 0 0-32-78.08l-52.48-50.56a106.24 106.24 0 0 0-74.88-32.64 88.96 88.96 0 0 0-64 26.24l-550.4 571.52z m694.4-424.32l-54.4 56.32-88.96-93.44 53.12-56.96a25.6 25.6 0 0 1 34.56 0l53.12 53.76a30.72 30.72 0 0 1 8.32 20.48 22.4 22.4 0 0 1-5.76 16zM261.76 628.48l394.88-411.52 89.6 94.08-394.88 410.88z m-73.6 167.68l28.8-109.44L293.76 768z m693.12-376.32M938.88 1001.6h-832a35.2 35.2 0 0 1-35.2-35.2 34.56 34.56 0 0 1 35.2-35.2h832a35.2 35.2 0 0 1 35.2 35.2 35.2 35.2 0 0 1-35.2 35.2z" fill="#323333" p-id="12092"></path></svg>