<?xml version="1.0" encoding="UTF-8"?>
<svg width="16px" height="16px" viewBox="0 0 16 16" version="1.1" xmlns="http://www.w3.org/2000/svg" xmlns:xlink="http://www.w3.org/1999/xlink">
    <title>编组</title>
    <defs>
        <polygon id="path-1" points="0 0 16 0 16 16 0 16"></polygon>
    </defs>
    <g id="页面-1" stroke="none" stroke-width="1" fill="none" fill-rule="evenodd">
        <g id="文件传输" transform="translate(-555.000000, -332.000000)">
            <g id="编组-11" transform="translate(527.000000, 182.000000)">
                <g id="编组-16" transform="translate(12.000000, 100.000000)">
                    <g id="编组-14" transform="translate(6.000000, 42.000000)">
                        <g id="编组" transform="translate(10.000000, 8.000000)">
                            <mask id="mask-2" fill="white">
                                <use xlink:href="#path-1"></use>
                            </mask>
                            <g id="Clip-2"></g>
                            <path d="M7.51605795,13.3131164 C5.97836729,13.3131164 4.53266025,12.7124374 3.44534501,11.6216898 C2.35804944,10.5309422 1.75924099,9.08069122 1.75924099,7.53820571 C1.75924099,5.99566098 2.35804944,4.54539025 3.44534501,3.45466239 C4.53266025,2.36391479 5.97836729,1.76321607 7.51605795,1.76321607 C9.0536699,1.76321607 10.4993769,2.36391479 11.5866922,3.45466239 C12.6739878,4.54539025 13.2727962,5.99566098 13.2727962,7.53820571 C13.2727962,9.08069122 12.6739878,10.5309422 11.5866922,11.6216898 C10.4993769,12.7124374 9.0536699,13.3131164 7.51605795,13.3131164 M15.3155999,14.4218253 L12.9310893,12.0297086 C12.9287086,12.0273203 12.9261704,12.02509 12.9237897,12.0227609 C13.3589558,11.4960196 13.7132748,10.9114466 13.9804306,10.2779042 C14.3464172,9.40983795 14.5320372,8.48800603 14.5320372,7.53820571 C14.5320372,6.58832644 14.3464172,5.66651425 13.9804306,4.798369 C13.6270364,3.9602054 13.1212347,3.20762469 12.4770936,2.5614502 C11.8329328,1.9152757 11.0827203,1.40787734 10.2472139,1.05336759 C9.38178088,0.686205944 8.46286944,0.5 7.51605795,0.5 C6.56916775,0.5 5.65025631,0.686205944 4.78482326,1.05336759 C3.94931686,1.40787734 3.19910436,1.9152757 2.55494357,2.5614502 C1.91080245,3.20762469 1.40500076,3.9602054 1.05160658,4.798369 C0.685619993,5.66651425 0.5,6.58832644 0.5,7.53820571 C0.5,8.48800603 0.685619993,9.40983795 1.05160658,10.2779832 C1.40500076,11.1161468 1.91080245,11.8687275 2.55494357,12.514902 C3.19910436,13.1610765 3.94931686,13.6684749 4.78482326,14.0229846 C5.65025631,14.3901463 6.56916775,14.5763325 7.51605795,14.5763325 C8.46286944,14.5763325 9.38178088,14.3901463 10.2471352,14.0229846 C10.8993434,13.7462811 11.4992143,13.3760403 12.0376185,12.9197628 C12.0386023,12.9207496 12.0396058,12.9219142 12.0406092,12.9229208 L14.4251985,15.3150375 C14.5481712,15.4383195 14.7092754,15.5 14.8704385,15.5 C15.0315427,15.5 15.1927058,15.4383195 15.3155999,15.3150375 C15.5614667,15.0683946 15.5614667,14.6684683 15.3155999,14.4218253" id="Fill-1" fill="#CCCCCC" mask="url(#mask-2)"></path>
                        </g>
                    </g>
                </g>
            </g>
        </g>
    </g>
</svg>