<?xml version="1.0" standalone="no"?><!DOCTYPE svg PUBLIC "-//W3C//DTD SVG 1.1//EN" "http://www.w3.org/Graphics/SVG/1.1/DTD/svg11.dtd"><svg t="1750779502989" class="icon" viewBox="0 0 1024 1024" version="1.1" xmlns="http://www.w3.org/2000/svg" p-id="5480" xmlns:xlink="http://www.w3.org/1999/xlink" width="128" height="128"><path d="M167.52941187 342.58823563c-28.23529406 0-56.47058813 28.23529406-56.47058812 39.52941187v259.764705c0 16.94117625 28.23529406 39.52941188 56.47058813 39.52941188s56.47058813-28.23529406 56.47058812-39.52941188V387.76470594c0-16.94117625-22.58823563-45.17647031-56.47058812-45.17647032M257.8823525 749.17647031c0 22.58823563 22.58823563 45.17647031 45.17647125 45.17647125h50.82352875v135.52941094c0 22.58823563 28.23529406 39.52941188 56.47058906 39.52941188s56.47058813-16.94117625 56.47058813-39.52941188v-135.52941094h90.35294062v135.52941094c0 22.58823563 28.23529406 39.52941188 56.47058813 39.52941188 33.8823525 0 56.47058813-16.94117625 56.47058906-39.52941188v-135.52941094h50.82352875c22.58823563 0 39.52941188-16.94117625 39.52941188-45.17647125V342.58823563H257.8823525v406.58823468zM856.47058813 342.58823563c-33.8823525 0-56.47058813 28.23529406-56.47058813 39.52941187v259.764705c0 16.94117625 28.23529406 39.52941188 56.47058812 39.52941188s56.47058813-28.23529406 56.47058813-39.52941188V387.76470594c0-16.94117625-28.23529406-45.17647031-56.47058813-45.17647032M647.52941187 207.05882375c0 16.94117625-11.29411781 28.23529406-28.23529406 28.23529406-11.29411781-5.64705844-22.58823563-16.94117625-22.58823562-28.23529406 0-16.94117625 11.29411781-28.23529406 28.23529406-28.23529406 11.29411781 0 22.58823563 11.29411781 22.58823563 28.23529406z m-242.82352968 22.58823469c-16.94117625 0-28.23529406-11.29411781-28.23529407-22.58823469s11.29411781-28.23529406 28.23529407-28.23529406 28.23529406 11.29411781 28.23529406 28.23529406-16.94117625 22.58823563-28.23529406 22.58823469z m231.52941187-101.64705844l39.52941188-62.1176475c0-5.64705844 5.64705844-11.29411781 0-16.94117625-5.64705844 0-11.29411781 0-16.94117625 5.64705938l-39.52941188 67.76470593c-28.23529406-11.29411781-62.1176475-22.58823563-107.29411781-22.58823562-39.52941188 0-79.05882375 5.64705844-107.29411781 16.94117625L365.17647031 54.58823562c0-5.64705844-11.29411781-5.64705844-16.94117625-5.64705937-5.64705844 0 0 11.29411781 0 16.94117625l45.17647032 62.1176475C274.82352969 184.47058813 257.8823525 308.70588219 257.8823525 308.70588219h502.58823562c0-5.64705844-16.94117625-124.23529406-124.23529406-180.70588219z" fill="#97C03D" p-id="5481"></path></svg>