<?xml version="1.0" standalone="no"?><!DOCTYPE svg PUBLIC "-//W3C//DTD SVG 1.1//EN" "http://www.w3.org/Graphics/SVG/1.1/DTD/svg11.dtd"><svg t="1692768642014" class="icon" viewBox="0 0 1024 1024" version="1.1" xmlns="http://www.w3.org/2000/svg" p-id="6390" xmlns:xlink="http://www.w3.org/1999/xlink" width="48" height="48"><path d="M896 224v704c0 53.02-42.98 96-96 96H224c-53.02 0-96-42.98-96-96V224c0-53.02 42.98-96 96-96h160c0-70.58 57.42-128 128-128s128 57.42 128 128h160c53.02 0 96 42.98 96 96zM512 80c-26.51 0-48 21.49-48 48s21.49 48 48 48 48-21.49 48-48-21.49-48-48-48m192 228v-40a12 12 0 0 0-12-12H332a12 12 0 0 0-12 12v40a12 12 0 0 0 12 12h360a12 12 0 0 0 12-12z" fill="#00ff00" p-id="6391"></path></svg>