<?xml version="1.0" standalone="no"?><!DOCTYPE svg PUBLIC "-//W3C//DTD SVG 1.1//EN" "http://www.w3.org/Graphics/SVG/1.1/DTD/svg11.dtd"><svg t="1692768646794" class="icon" viewBox="0 0 1024 1024" version="1.1" xmlns="http://www.w3.org/2000/svg" p-id="6573" xmlns:xlink="http://www.w3.org/1999/xlink" width="48" height="48"><path d="M800 128h-160c0-70.58-57.42-128-128-128s-128 57.42-128 128H224C170.98 128 128 170.98 128 224v704c0 53.02 42.98 96 96 96h576c53.02 0 96-42.98 96-96V224c0-53.02-42.98-96-96-96z m-12 800H236a12 12 0 0 1-12-12V236a12 12 0 0 1 12-12h84v72c0 13.254 10.746 24 24 24h336c13.254 0 24-10.746 24-24v-72h84a12 12 0 0 1 12 12v680a12 12 0 0 1-12 12zM512 80c26.51 0 48 21.49 48 48s-21.49 48-48 48-48-21.49-48-48 21.49-48 48-48" fill="#ffffff" p-id="6574"></path></svg>