<svg xmlns="http://www.w3.org/2000/svg" height="24px" viewBox="0 -960 960 960" width="24px" fill="#ffffff"><path d="M480-540Zm-40 380H120q-17 0-28.5-11.5T80-200q0-17 11.5-28.5T120-240h320q17 0 28.5 11.5T480-200q0 17-11.5 28.5T440-160ZM200-280q-33 0-56.5-23.5T120-360v-360q0-33 23.5-56.5T200-800h600q17 0 28.5 11.5T840-760q0 17-11.5 28.5T800-720H200v360h240q17 0 28.5 11.5T480-320q0 17-11.5 28.5T440-280H200Zm600 40v-320H640v320h160Zm-180 80q-25 0-42.5-17.5T560-220v-360q0-25 17.5-42.5T620-640h200q25 0 42.5 17.5T880-580v360q0 25-17.5 42.5T820-160H620Zm100-300q13 0 21.5-9t8.5-21q0-13-8.5-21.5T720-520q-12 0-21 8.5t-9 21.5q0 12 9 21t21 9Zm0 60Z"/></svg>