<?xml version="1.0"?><svg viewBox="0 0 500 474.5" xmlns="http://www.w3.org/2000/svg"><defs><style>.cls-1{fill:#62626a;}.cls-2,.cls-5{fill:#ff9e9d;}.cls-3{fill:#fff;}.cls-3,.cls-4,.cls-5{stroke:#62626a;stroke-miterlimit:10;stroke-width:9px;}.cls-4{fill:none;}</style></defs><title/><g data-name="Layer 2" id="Layer_2"><g data-name="Layer 1" id="Layer_1-2"><path class="cls-1" d="M500,250A250.28,250.28,0,0,1,368.85,470H131.15A250,250,0,1,1,500,250Z"/><path class="cls-2" d="M310,250H190L162,127.54c-5.63-24.62,12.6-49.23,46.24-60.81A129,129,0,0,1,250,60h0a129,129,0,0,1,41.8,6.73c33.64,11.58,51.87,36.19,46.24,60.81Z"/><path class="cls-3" d="M400,333.23V470H100V333.23a52.75,52.75,0,0,1,42.39-51.72l20.13-4,33.3-6.66a276.76,276.76,0,0,1,108.36,0l36.18,7.23,17.25,3.45A52.75,52.75,0,0,1,400,333.23Z"/><path class="cls-3" d="M330,350v31.42A47.9,47.9,0,0,1,330,440v30"/><circle class="cls-3" cx="315" cy="175" r="15"/><circle class="cls-3" cx="185" cy="175" r="15"/><path class="cls-3" d="M304.18,270.83q-12-2.4-24.18-3.7V230H220v37.13q-12.15,1.32-24.18,3.7l4.29,43.05a66.75,66.75,0,0,0,99.78,0Z"/><path class="cls-3" d="M190,130v60c9.08,28.8,35.54,55.86,60,60h0c24.46-4.14,50.92-31.2,60-60V130"/><path class="cls-3" d="M320,130s-50,0-70-20c-20,20-70,20-70,20"/><circle class="cls-1" cx="275" cy="165" r="5"/><circle class="cls-1" cx="225" cy="165" r="5"/><path class="cls-3" d="M270,200h0a20,20,0,0,1-40,0"/><path class="cls-3" d="M170,350v31.42A47.9,47.9,0,0,0,170,440v30"/><circle class="cls-4" cx="275" cy="165" r="15"/><circle class="cls-4" cx="225" cy="165" r="15"/><line class="cls-4" x1="260" x2="240" y1="165" y2="165"/><line class="cls-4" x1="290" x2="315" y1="165" y2="160"/><line class="cls-4" x1="210" x2="185" y1="165" y2="160"/><path class="cls-5" d="M348,340V452s-52.13,0-84.41,18H236.41C204.13,452,152,452,152,452V340s70,0,98,28C278,340,348,340,348,340Z"/></g></g></svg>