<?xml version="1.0" standalone="no"?><!DOCTYPE svg PUBLIC "-//W3C//DTD SVG 1.1//EN" "http://www.w3.org/Graphics/SVG/1.1/DTD/svg11.dtd"><svg t="1750779469512" class="icon" viewBox="0 0 1024 1024" version="1.1" xmlns="http://www.w3.org/2000/svg" p-id="5130" xmlns:xlink="http://www.w3.org/1999/xlink" width="128" height="128"><path d="M521.995587 236.597895a154.138947 154.138947 0 0 0 35.031579-4.850527h5.389474a179.469474 179.469474 0 0 0 35.570526-16.168421h4.850527a209.650526 209.650526 0 0 0 30.72-20.48l3.772631-3.233684a234.442105 234.442105 0 0 0 26.947369-26.947368l3.233684-3.233684a242.526316 242.526316 0 0 0 22.096842-32.336843v-3.772631a232.825263 232.825263 0 0 0 16.168421-36.648421V86.231579a211.267368 211.267368 0 0 0 9.162105-39.882105 188.092632 188.092632 0 0 0 0-42.037895A227.435789 227.435789 0 0 0 512.294535 236.058947zM813.027166 616.016842a218.812632 218.812632 0 0 1-14.551579-86.231579 212.345263 212.345263 0 0 1 10.24-57.667368 215.578947 215.578947 0 0 1 26.408421-53.894737 245.221053 245.221053 0 0 1 71.141053-68.985263 236.597895 236.597895 0 0 0-154.138947-97.549474 250.610526 250.610526 0 0 0-35.031579-4.311579h-65.212632l-15.629474 4.311579-11.856842 3.772632-15.090526 5.389473-10.778947 8.623158-17.785263 7.006316-14.551579 5.928421-10.24 3.772632-12.39579 3.772631h-7.006316a73.296842 73.296842 0 0 1-16.707368 0 77.608421 77.608421 0 0 1-16.168421 0h-5.928421l-11.856842-3.233684-8.623158-3.233684-12.39579-3.233684-20.48-8.084211L436.302956 269.473684l-14.551579-5.389473-9.701053-3.233685-13.473684-4.311579H388.33664l-14.012632-2.694736h-10.778947L350.610324 250.071579A256.538947 256.538947 0 0 0 254.138745 269.473684 291.570526 291.570526 0 0 0 81.13664 554.576842v53.894737c0 4.311579 0 19.402105 3.772632 29.103158s0 10.778947 3.233684 16.168421 3.233684 17.246316 5.389473 25.869474 3.233684 11.317895 4.850527 16.707368 4.311579 16.168421 7.006316 24.252632 4.311579 11.856842 6.467368 17.785263l8.084211 22.635789 7.545263 17.246316c3.233684 7.006316 5.928421 14.551579 9.162105 21.557895l8.08421 16.168421 10.778948 21.018947 9.162105 15.629474 11.317895 19.402105 9.701052 14.551579 11.856843 17.785263 10.24 13.473684 12.395789 15.629474 10.778947 12.39579 12.39579 13.473684 11.317895 10.778947 12.395789 11.317895 11.317895 8.623158 12.395789 9.162105 11.317895 6.467368 11.856842 6.467369 10.778948 3.772631 11.856842 3.772632L350.610324 1024H363.006114a161.684211 161.684211 0 0 0 43.115789-7.545263 331.991579 331.991579 0 0 1 126.652632-34.492632 198.871579 198.871579 0 0 1 26.947368 0h8.623158l14.551579 3.233684 9.162105 2.694737 11.317895 3.772632 9.701053 3.772631 14.012631 5.928422 12.39579 5.389473 8.08421 2.694737 10.778948 3.772632H704.159798a154.138947 154.138947 0 0 0 95.393684-44.193685 551.882105 551.882105 0 0 0 119.107369-165.995789 568.050526 568.050526 0 0 0 24.791578-51.738947 247.915789 247.915789 0 0 1-130.425263-135.27579z" p-id="5131"></path></svg>