<?xml version="1.0" standalone="no"?><!DOCTYPE svg PUBLIC "-//W3C//DTD SVG 1.1//EN" "http://www.w3.org/Graphics/SVG/1.1/DTD/svg11.dtd"><svg t="1740059200764" class="icon" viewBox="0 0 1024 1024" version="1.1" xmlns="http://www.w3.org/2000/svg" p-id="29580" xmlns:xlink="http://www.w3.org/1999/xlink" width="200" height="200"><path d="M501.7 543.6c5.2-82.6-21.9-141.7-76-180.8-48.2-34.8-117.5-53.1-196.6-55-12.3 32.1-43.3 54.8-79.7 54.8-47.1 0-85.3-38.2-85.3-85.3s38.2-85.3 85.3-85.3c43 0 78.6 31.9 84.5 73.3 85.5 2.6 161.4 23 216.8 63 47 33.9 77.4 80.6 89 139.3 1.1-2.6 2.1-5.2 3.2-7.9 24.7-59.2 32.6-112.5 22.1-158-11-48-42.6-88.1-98-119.8-12 6.4-25.7 10.1-40.3 10.1-47.1 0-85.3-38.2-85.3-85.3s38.2-85.3 85.3-85.3S512 59.5 512 106.7c0 16.5-4.7 31.8-12.7 44.9 58.7 36.6 94.3 84.1 107.3 140.6 12.7 55.3 3.5 117.2-24.3 184-25.2 60.5-36.6 107-31.5 131.9 2 9.6 5.7 13.8 13.3 15.5 12.5 2.8 33.6-1 63.1-13.1 39.2-16 82.4-75.9 106.1-152.9 26.1-84.9 26-178.6-4.8-265.7-1 0-2.1 0.1-3.1 0.1-47.1 0-85.3-38.2-85.3-85.3s38.2-85.3 85.3-85.3 85.3 38.2 85.3 85.3c0 31-16.5 58.2-41.3 73.1 27.1 77.9 32 160.3 17.4 238.4 34.1-0.1 49.1-2 66.6-9.7 0-1-0.1-2.1-0.1-3.1 0-47.1 38.2-85.3 85.3-85.3s85.3 38.2 85.3 85.3-38.2 85.3-85.3 85.3c-31 0-58.1-16.5-73-41.2-10.2 4.1-20.2 6.8-30.9 8.5-13.7 2.2-27.1 2.8-52.3 2.8-1.9 0-3.7-0.2-5.4-0.7-0.9 3.4-1.9 6.7-3 10-27 88.1-77.7 158.1-130.7 179.8-19.7 8.1-37.2 13.3-52.7 15.7 7.4 5.1 15.5 9.4 24.6 13.1 44.8 18.4 113.7 21.6 218.9 6.7 8.5-38.2 42.6-66.8 83.3-66.8 47.1 0 85.3 38.2 85.3 85.3s-38.2 85.3-85.3 85.3c-38.7 0-71.3-25.7-81.8-61C726 743.3 651.4 739.5 599 718.1c-24.7-10.1-44.5-24.1-61.6-42.6 2.9 42.7 12.6 77.9 28.4 105.6 22.4 39.2 57.2 63.3 102.5 72.7 15.1-13.6 35.1-21.9 57.1-21.9 47.1 0 85.3 38.2 85.3 85.3s-38.2 85.3-85.3 85.3-85.4-38-85.4-85.2c0-8.9 1.4-17.5 3.9-25.5-49.5-14-89.1-43.9-115.1-89.4-27.1-47.4-38.7-110.4-33.9-188.7-2.9-5-7-12.1-8.7-14.9-4.5-7.6-8.3-13.9-12.2-19.8-21.1-32.6-44-56.6-76.8-76.4-18.4 10.2-38.3 31.4-53.2 58.4-18.3 33.1-27.6 71.3-24.8 108.6 2.3 30.7 11.3 65.9 25 100.1 10.3 25.6 22.7 49.1 34.7 66.4 8.3-2.7 17.2-4.2 26.5-4.2 47.1 0 85.3 38.2 85.3 85.3s-38.2 85.3-85.3 85.3-85.4-38-85.4-85.2c0-22.5 8.7-42.9 22.9-58.1-33-48-61.6-124.3-66.2-186.4-3.4-46 7.8-92.3 30-132.5 12.8-23 28.7-43 45.9-58-47.7-13.3-102.7-3.6-147.4 27.9-56.1 39.5-89.2 107.2-88.2 194.4 42.3 5.1 75.1 41.1 75.1 84.7 0 47.1-38.2 85.3-85.3 85.3s-85.3-38.2-85.3-85.3c0-35.7 21.9-66.3 53-79-2.5-103.4 37.2-186.3 106.2-235 66.3-46.7 151.6-54.7 218.9-20.3 44.6 22.9 75.5 50.9 102.1 88.6zM725.3 960c23.6 0 42.7-19.1 42.7-42.7s-19.1-42.7-42.7-42.7-42.7 19.1-42.7 42.7 19.2 42.7 42.7 42.7z m-320 0c23.6 0 42.7-19.1 42.7-42.7s-19.1-42.7-42.7-42.7-42.7 19.1-42.7 42.7 19.2 42.7 42.7 42.7z m512-213.3c23.6 0 42.7-19.1 42.7-42.7s-19.1-42.7-42.7-42.7-42.7 19.1-42.7 42.7 19.2 42.7 42.7 42.7zM938.7 448c23.6 0 42.7-19.1 42.7-42.7s-19.1-42.7-42.7-42.7-42.7 19.2-42.7 42.7 19.1 42.7 42.7 42.7zM149.3 320c23.6 0 42.7-19.1 42.7-42.7s-19.1-42.7-42.7-42.7-42.7 19.1-42.7 42.7 19.2 42.7 42.7 42.7z m576-170.7c23.6 0 42.7-19.1 42.7-42.7S748.9 64 725.3 64s-42.7 19.1-42.7 42.7 19.2 42.6 42.7 42.6z m-298.6 0c23.6 0 42.7-19.1 42.7-42.7S450.2 64 426.7 64 384 83.1 384 106.7s19.1 42.6 42.7 42.6zM106.7 832c23.6 0 42.7-19.1 42.7-42.7s-19.1-42.7-42.7-42.7S64 765.8 64 789.3 83.1 832 106.7 832z" fill="#fbfbfb" p-id="29581"></path></svg>