<?xml version="1.0" standalone="no"?><!DOCTYPE svg PUBLIC "-//W3C//DTD SVG 1.1//EN" "http://www.w3.org/Graphics/SVG/1.1/DTD/svg11.dtd"><svg t="1748486404550" class="icon" viewBox="0 0 1024 1024" version="1.1" xmlns="http://www.w3.org/2000/svg" p-id="23453" xmlns:xlink="http://www.w3.org/1999/xlink" width="200" height="200"><path d="M605.2352 463.4624l-158.72-91.6992A60.0064 60.0064 0 0 0 356.352 423.68v183.4496a59.8528 59.8528 0 0 0 90.0096 51.968l158.72-91.7504a60.0064 60.0064 0 0 0 0-103.8848zM417.792 604.6208V426.24l154.5216 89.1904z" fill="#00A0E9" p-id="23454"></path><path d="M956.3136 276.7872a83.3536 83.3536 0 0 0-84.224 0l-35.1232 20.48V239.3088a107.52 107.52 0 0 0-107.52-107.52H158.0544a107.52 107.52 0 0 0-107.52 107.52v550.3488a107.52 107.52 0 0 0 107.52 107.52h571.2896a107.52 107.52 0 0 0 107.52-107.52v-68.5568l35.1232 20.48a83.3536 83.3536 0 0 0 84.224 0 83.456 83.456 0 0 0 42.1888-73.1136V349.696a83.3536 83.3536 0 0 0-42.0864-72.9088z m-180.7872 512.8704a46.08 46.08 0 0 1-46.08 46.08H158.0544a46.08 46.08 0 0 1-46.08-46.08V239.3088a46.08 46.08 0 0 1 46.08-46.08h571.2896a46.08 46.08 0 0 1 46.08 46.08v550.3488zM936.96 668.4672a22.8352 22.8352 0 0 1-34.2016 19.712L836.9664 650.24V368.0256l65.8432-38.0416A22.8352 22.8352 0 0 1 936.96 349.696z" fill="#00A0E9" p-id="23455"></path><path d="M241.3056 239.0016a80.0768 80.0768 0 1 0 80.0256 80.0256 80.128 80.128 0 0 0-80.0256-80.0256z m0 98.6624a18.6368 18.6368 0 1 1 18.5856-18.6368A18.6368 18.6368 0 0 1 241.3056 337.92z" fill="#00A0E9" p-id="23456"></path></svg>