<?xml version="1.0" standalone="no"?><!DOCTYPE svg PUBLIC "-//W3C//DTD SVG 1.1//EN" "http://www.w3.org/Graphics/SVG/1.1/DTD/svg11.dtd"><svg t="1748166915742" class="icon" viewBox="0 0 1024 1024" version="1.1" xmlns="http://www.w3.org/2000/svg" p-id="13591" xmlns:xlink="http://www.w3.org/1999/xlink" width="128" height="128"><path d="M771.072 363.221333a298.752 298.752 0 0 0-536.576 38.144 42.666667 42.666667 0 0 1-79.274667-31.573333 384.085333 384.085333 0 0 1 692.693334-44.032l50.304-24.533333a12.8 12.8 0 0 1 18.176 13.909333l-32.170667 167.594667a12.8 12.8 0 0 1-18.432 8.96l-151.893333-77.781334a12.8 12.8 0 0 1 0.256-22.912l56.917333-27.733333zM254.250667 663.04a298.752 298.752 0 0 0 534.656-38.826667 42.666667 42.666667 0 0 1 79.061333 32 384.085333 384.085333 0 0 1-690.602667 44.288l-54.826666 26.752a12.8 12.8 0 0 1-18.176-13.909333L136.533333 545.706667a12.8 12.8 0 0 1 18.432-8.96l151.893334 77.781333a12.8 12.8 0 0 1-0.256 22.912l-52.352 25.557333z" fill="#2979ff" p-id="13592" data-spm-anchor-id="a313x.search_index.0.i0.3bb43a819nkVcK" class="selected"></path></svg>